/* XPM */
static char *c[] = {
/* columns rows colors chars-per-pixel */
"64 64 167 2 ",
"   c #01261F",
".  c #022621",
"X  c #032B25",
"o  c #042E28",
"O  c #06342D",
"+  c #0A362F",
"@  c #05382F",
"#  c #063730",
"$  c #0B3730",
"%  c #073B33",
"&  c #0A3B33",
"*  c #0C3F39",
"=  c #173533",
"-  c #183635",
";  c #173B37",
":  c #193936",
">  c #173B39",
",  c #193E3A",
"<  c #213D3B",
"1  c #074139",
"2  c #0F433A",
"3  c #0A4A3F",
"4  c #10433A",
"5  c #1C413C",
"6  c #20453F",
"7  c #0B4D42",
"8  c #1F4341",
"9  c #134D44",
"0  c #0B5145",
"q  c #0E564A",
"w  c #0E594D",
"e  c #11554B",
"r  c #105A4E",
"t  c #0F5D51",
"y  c #115E51",
"u  c #204441",
"i  c #2B4343",
"p  c #234F47",
"a  c #224E49",
"s  c #284D4A",
"d  c #324A47",
"f  c #334B4A",
"g  c #27524C",
"h  c #31504E",
"j  c #335050",
"k  c #385756",
"l  c #0E6154",
"z  c #126356",
"x  c #136658",
"c  c #146A5C",
"v  c #1B6B5D",
"b  c #1C7263",
"n  c #1B7967",
"m  c #1C7B6A",
"M  c #227466",
"N  c #217668",
"B  c #237B6C",
"V  c #237F70",
"C  c #737C7C",
"Z  c #23806F",
"A  c #258373",
"S  c #298576",
"D  c #268877",
"F  c #288877",
"G  c #278778",
"H  c #298778",
"J  c #268B7B",
"K  c #2D8C7C",
"L  c #308477",
"P  c #318578",
"I  c #308D7D",
"U  c #26907F",
"Y  c #74807E",
"T  c #328F80",
"R  c #2E9281",
"E  c #2E9A87",
"W  c #2F9A88",
"Q  c #339787",
"!  c #329686",
"~  c #319484",
"^  c #339888",
"/  c #349989",
"(  c #349889",
")  c #369989",
"_  c #349A89",
"`  c #36998A",
"'  c #359A8A",
"]  c #349989",
"[  c #3A9D8E",
"{  c #32A08D",
"}  c #26AD95",
"|  c #3BA291",
" . c #3CA292",
".. c #3DA493",
"X. c #3EA494",
"o. c #3CA393",
"O. c #27B197",
"+. c #29B79D",
"@. c #29B69D",
"#. c #2ABDA3",
"$. c #768080",
"%. c #768180",
"&. c #7D8282",
"*. c #7E8383",
"=. c #7D8483",
"-. c #7F8384",
";. c #7F8385",
":. c #7E8484",
">. c #7F8484",
",. c #7F8485",
"<. c #7F8584",
"1. c #7F8586",
"2. c #7E8382",
"3. c #2BC0A5",
"4. c #2EC5A9",
"5. c #2FC5AA",
"6. c #2ECCAF",
"7. c #34C4AB",
"8. c #39C4AB",
"9. c #38C9AF",
"0. c #38C8AE",
"q. c #2ECEB1",
"w. c #31CFB3",
"e. c #39CAB0",
"r. c #2FD0B3",
"t. c #39D2B7",
"y. c #3CD3B9",
"u. c #43D5BB",
"i. c #73D3C1",
"p. c #74DDCD",
"a. c #74DCCB",
"s. c #73E1CD",
"d. c #76E7D3",
"f. c #75E4D2",
"g. c #7DE5D3",
"h. c #75EBD6",
"j. c #75EBD8",
"k. c #7FE9D8",
"l. c #7FF1DE",
"z. c #818384",
"x. c #818584",
"c. c #808485",
"v. c #808585",
"b. c #818585",
"n. c #808584",
"m. c #808486",
"M. c #808586",
"N. c #818586",
"B. c #818687",
"V. c #828686",
"C. c #818685",
"Z. c #808484",
"A. c #898A8A",
"S. c #898A8B",
"D. c #8A8A8A",
"F. c #8B8A8A",
"G. c #8B8A8B",
"H. c #8B8B8B",
"J. c #8A8A8B",
"K. c #8C8B8B",
"L. c #8B8C8B",
"P. c #8A8A8A",
"I. c #81EBD9",
"U. c #81EAD9",
"Y. c #80F2DE",
"T. c #8AF6E4",
"R. c #8CF8E4",
/* pixels */
"D.D.D.D.D.D.D.D.D.D.D.D.D.D.D.D.D.D.D.D.D.D.D.D.D.D.D.D.D.D.D.D.D.D.D.D.D.D.D.D.D.D.D.D.D.D.D.D.D.D.D.D.D.D.D.D.D.D.D.D.D.D.D.D.",
"D.D.D.D.D.D.D.D.D.D.D.D.D.D.D.D.D.D.D.D.D.D.D.D.D.D.D.D.D.D.D.D.D.D.D.D.D.D.D.D.D.D.D.D.D.D.D.D.D.D.D.D.D.D.D.D.D.D.D.D.D.D.D.D.",
"D.D.D.D.D.D.D.D.D.D.D.D.D.D.D.D.D.D.D.D.D.D.D.D.D.D.D.D.D.D.D.D.D.D.D.D.D.D.D.D.D.D.D.D.D.D.D.D.D.D.D.D.D.D.D.D.D.D.D.D.D.D.D.D.",
"D.D.D.D.D.D.D.D.D.D.D.D.D.D.D.D.D.D.D.D.D.D.D.D.D.D.D.D.D.D.D.D.D.D.D.D.D.D.D.D.D.D.D.D.D.D.D.D.D.D.D.D.D.D.D.D.D.D.D.D.D.D.D.D.",
"D.D.D.D.D.D.D.D.D.D.D.D.D.D.D.D.D.D.D.D.D.D.D.D.D.D.D.D.D.D.D.D.D.D.D.D.D.D.D.D.D.D.D.D.D.D.D.D.D.D.D.D.D.D.D.D.D.D.D.D.D.D.D.D.",
"D.D.D.D.D.D.D.D.D.D.D.D.D.D.D.D.D.D.D.D.D.D.D.D.D.D.D.D.D.D.D.D.D.D.D.D.D.D.D.D.D.D.D.D.D.D.D.D.D.D.D.D.D.D.D.D.D.D.D.D.D.D.D.D.",
"D.D.D.D.D.D.D.D.D.D.D.D.D.D.D.D.D.D.D.D.D.D.D.D.D.D.D.D.D.D.D.D.D.D.D.D.D.D.D.D.D.D.D.D.D.D.D.D.D.D.D.D.D.D.D.D.D.D.D.D.D.D.D.D.",
"D.D.D.D.D.D.D.D.D.D.D.D.D.D.D.D.D.D.D.D.D.D.D.D.D.D.D.D.m.,.m.m.m.m.m.,.,.,.m.m.D.D.D.D.D.D.D.D.D.D.D.D.D.D.D.D.D.D.D.D.D.D.D.D.",
"D.D.D.D.D.D.D.D.D.D.D.D.D.D.D.D.D.D.D.D.D.D.D.D.D.D.D.m.h u u u u u u u u u u k m.D.D.D.D.D.D.D.D.D.D.D.D.D.D.D.D.D.D.D.D.D.D.D.",
"D.D.D.D.D.D.D.D.D.D.D.D.D.D.D.D.D.D.D.D.D.D.D.D.D.D.D.m.u $ $ $ $ $ $ $ $ $ $ s m.D.D.D.D.D.D.D.D.D.D.D.D.D.D.D.D.D.D.D.D.D.D.D.",
"D.D.D.D.D.D.D.D.D.D.D.D.D.D.D.D.D.D.D.D.D.D.D.D.D.D.D.m.u + $ $ + + + + $ $ $ s m.D.D.D.D.D.D.D.D.D.D.D.D.D.D.D.D.D.D.D.D.D.D.D.",
"D.D.D.D.D.D.D.D.D.D.D.D.D.D.D.D.D.D.D.D.m.,.,.,.,.,.m.$.g 4 2 2 2 2 2 4 2 4 4 g C ,.,.,.,.,.,.m.D.D.D.D.D.D.D.D.D.D.D.D.D.D.D.D.",
"D.D.D.D.D.D.D.D.D.D.D.D.D.D.D.D.D.D.D.m.h 8 u u 8 u 8 a S I K K K K K K B B B N a 8 u u u u 8 h m.D.D.D.D.D.D.D.D.D.D.D.D.D.D.D.",
"D.D.D.D.D.D.D.D.D.D.D.D.D.D.D.D.D.D.D.,.8 $ $ $ $ $ + 2 I ` ` ` ` ` ` ! K D D B * + $ $ + $ + u ,.D.D.D.D.D.D.D.D.D.D.D.D.D.D.D.",
"D.D.D.D.D.D.D.D.D.D.D.D.D.D.D.D.D.D.D.m.u + + + + + + 2 I ` ` ` ` ` ` ! K D D B 2 $ $ $ + + + 6 ,.D.D.D.D.D.D.D.D.D.D.D.D.D.D.D.",
"D.D.D.D.D.D.D.D.D.D.D.D.D.D.D.D.m.,.,.$.a 4 4 4 4 4 4 9 K ! ! ! ! ! ! K D V V N 9 2 2 2 2 $ $ p C ,.,.m.D.D.D.D.D.D.D.D.D.D.D.D.",
"D.D.D.D.D.D.D.D.D.D.D.D.D.D.D.m.f 8 u a S I K I I K K K K G D D v z z z z z z z B B B B B B B N , = = i m.D.D.D.D.D.D.D.D.D.D.D.",
"D.D.D.D.D.D.D.D.D.D.D.D.D.D.D.,.u $ + 2 I ` ` ` ` ` ` ! K D D V z y y y y y y z Z D D D D D D B @     = ,.D.D.D.D.D.D.D.D.D.D.D.",
"D.D.D.D.D.D.D.D.D.D.D.D.D.D.D.,.6 + + 2 I ` ` ` ` ! ` ! D D D B z y y y y y l z Z D D D D D D B @ . . - ,.D.D.D.D.D.D.D.D.D.D.D.",
"D.D.D.D.D.D.D.D.D.D.D.D.m.,.,.Y p 4 4 9 K ! ! ^  . . . .R G G D z t y r y y y z B D D D Z D D N $ @ @ , C ,.,.m.D.D.D.D.D.D.D.D.",
"D.D.D.D.D.D.D.D.D.D.D.m.h u u a P T I K F S D ! p.I.I.d.0.4.4.+.t 7 0 0 0 0 0 0 z z z z z z z z N B B N , - - i m.D.D.D.D.D.D.D.",
"D.D.D.D.D.D.D.D.D.D.D.,.8 $ $ 2 I ` ` ! S S D ! g.T.T.l.t.q.r.#.t 7 7 7 7 7 7 0 r y y y y y y z V D S B @   . - ,.D.D.D.D.D.D.D.",
"D.D.D.D.D.D.D.D.D.D.D.,.u $ + 2 I ` ` ! D D D ! g.T.T.Y.y.q.r.#.t 7 7 7 7 7 7 0 r y y y y y y z D D S B @ . . - ,.D.D.D.D.D.D.D.",
"D.D.D.D.D.D.D.D.D.D.D.,.u $ + 2 I ` ` ` ! ! ! [ d.l.Y.j.7.#.#.} q 7 7 7 7 7 7 7 q q q q y y t z B V V b @ . . - ,.D.D.D.D.D.D.D.",
"D.D.D.D.D.D.D.D.D.D.D.,.u $ + 2 I ` `  .p.g.g.d.u.y.u.8.z 0 0 7 2 % % % % % $ 1 7 0 0 0 0 0 0 0 z z z y o . . : ,.D.D.D.D.D.D.D.",
"D.D.D.D.D.D.D.D.D.D.D.m.u + + 2 I ` `  .k.T.T.l.y.w.w.#.7 % % % % % % % % % % % 7 7 7 7 7 7 7 0 y y y 0 X . . : ,.D.D.D.D.D.D.D.",
"D.D.D.D.D.D.D.D.D.D.D.m.6 + + 2 K ` `  .I.T.T.l.y.w.w.#.7 % % % % % % % % % % % 7 7 7 7 7 7 7 0 y y y 0 X . . : m.D.D.D.D.D.D.D.",
"D.D.D.D.D.D.D.D.m.,.m.$.a 2 2 9 K ! !  .d.l.l.h.8.#.#.} 7 @ # @ @ @ @ @ @ @ # % 3 3 7 7 7 7 7 0 r r y 0 @ X o , C ,.,.m.D.D.D.D.",
"D.D.D.D.D.D.D.m.j u u a S I K K G G D R 0.t.y.7.z 7 7 3 o X X X X X X X X X X X % % % % 7 7 7 7 0 0 0 0 0 r r e : = = i m.D.D.D.",
"D.D.D.D.D.D.D.m.u $ + 2 I ` ` ! G D D G 4.q.q.#.0 % % @ X . . . X . . . . X . X @ % % % 7 7 7 7 7 7 7 0 r y y 0 X   . - ,.D.D.D.",
"D.D.D.D.D.D.D.m.u $ $ 2 I ` ` ! K D D U 4.q.q.#.0 % % @ X . . . . . . . . . X X @ % % % 7 7 7 7 7 7 7 0 r y y 0 X . . - m.D.D.D.",
"D.D.D.D.D.D.D.m.u + + 2 I ` ` ! D D D G +.#.#.} 7 % % @ X . . . . . . . . . X X @ % % % 7 7 7 7 0 0 0 0 y y y 0 X . . : ,.D.D.D.",
"D.D.D.D.D.D.D.,.: X X $ I ` ` R v z z z l t t q 2 % % @ X X . . . . . . . . . X @ % % % 3 7 7 0 B V B B z y y 0 X . . : ,.D.D.D.",
"D.D.D.D.D.D.D.,.- .   + I ` ` R z y y r 0 7 7 7 $ % % @ X . . . . . . . . . . X @ % % % 3 7 7 0 B D D D z y y 0 X . . : ,.D.D.D.",
"D.D.D.D.D.D.D.,.- .   + I ` ` ! z y y y 0 7 7 7 $ % % @ X . . . . . . . . . . X @ % % % 7 7 7 0 B D D D z y y 0 o . . : m.D.D.D.",
"D.D.D.D.D.D.D.,.- .   + K ! ! R z y y y 0 7 7 3 $ % % @ X . . . . . . . . . . X @ % % % 7 7 7 0 D H K D z y y 0 X . . : ,.D.D.D.",
"D.D.D.D.D.D.D.,.- .   @ B F F D z y y y 7 7 7 3 $ % % @ X X . . . . . . . . . X @ % % % 7 7 7 r K ! ! R z y y 0 X . . : ,.D.D.D.",
"D.D.D.D.D.D.D.m.- .   @ B D D B z y y y 7 7 7 7 $ % % % X X . . . . . . . . X X @ % % % 7 7 7 r ! ` ` R z y y 0 X . . : ,.D.D.D.",
"D.D.D.D.D.D.D.,.: X X + B D D B z y y y 0 7 7 7 % % % % X . . . . . . . . . . X @ % % % 7 7 7 r R ` ` R z y y q o X X , ,.D.D.D.",
"D.D.D.D.D.D.D.m.d < < 8 M N N b z z z z 0 7 7 7 % % % % X X X X X X X X X X X X % % % 1 t l l v R ` ` ! y e 0 e 5 < < f m.D.D.D.",
"D.D.D.D.D.D.D.D.m.,.,.C 5 @ @ $ N D D B 0 7 7 7 3 7 7 3 % # # # # # # # # # % % 3 7 3 q O.#.#.#.{ ` ` K $ o o , C ,.,.m.D.D.D.D.",
"D.D.D.D.D.D.D.D.D.D.D.,.=     @ B S S B 0 7 7 7 7 7 7 3 % % % % % % % % % % % % 7 7 7 t #.q.q.7.{ ` ` K + . . - m.D.D.D.D.D.D.D.",
"D.D.D.D.D.D.D.D.D.D.D.,.=     @ B S S B 0 7 7 7 7 7 7 3 % % % % % % % % % % % % 7 7 7 q #.q.q.4.{ ` ` I + . . - ,.D.D.D.D.D.D.D.",
"D.D.D.D.D.D.D.D.D.D.D.,.-     @ B S S B 0 7 7 0 7 7 7 7 1 % $ $ $ $ % % % % % 1 q t t v 7.y.y.e.E R ! S + . . - ,.D.D.D.D.D.D.D.",
"D.D.D.D.D.D.D.D.D.D.D.,.-     @ B S D B z r r q 0 7 7 7 7 7 7 3 3 3 3 3 3 7 7 t O.#.#.7.j.Y.l.s.b z z y o . . - ,.D.D.D.D.D.D.D.",
"D.D.D.D.D.D.D.D.D.D.D.,.-     @ B D D B z y y q 0 7 7 7 7 7 7 7 7 7 7 7 7 7 0 l 3.q.q.t.l.T.T.g.b q y e X .   - ,.D.D.D.D.D.D.D.",
"D.D.D.D.D.D.D.D.D.D.D.,.=     @ B S S D z t y q 0 7 7 7 7 7 7 7 7 7 7 7 7 7 7 l #.q.q.t.l.T.R.g.b y y 0 X     - ,.D.D.D.D.D.D.D.",
"D.D.D.D.D.D.D.D.D.D.D.m.i = = , N B B N z z z l 0 0 0 0 7 7 7 7 0 0 0 0 0 r q v #.7.4.e.s.g.g.i.v e e e > - = i ,.D.D.D.D.D.D.D.",
"D.D.D.D.D.D.D.D.D.D.D.D.,.,.,.C , @ @ $ v n n b z r r r 0 7 7 0 N B B D K ! R R ` ` { W N b b v + X X : C ,.,.m.D.D.D.D.D.D.D.D.",
"D.D.D.D.D.D.D.D.D.D.D.D.D.D.D.,.=   . @ b m m m z y y y 0 7 7 0 B D S K ! ` ` ` ` ` ` R z y y e X   . - ,.D.D.D.D.D.D.D.D.D.D.D.",
"D.D.D.D.D.D.D.D.D.D.D.D.D.D.D.,.= . . @ b m m m z y y y 0 7 7 0 B D S K ! ` ` ` ` ` ` ! z y y r X . . = ,.D.D.D.D.D.D.D.D.D.D.D.",
"D.D.D.D.D.D.D.D.D.D.D.D.D.D.D.,.i = = > v b b v y 0 r e 0 0 0 0 B D D D R R R R K I I S y 0 0 e ; - = i m.D.D.D.D.D.D.D.D.D.D.D.",
"D.D.D.D.D.D.D.D.D.D.D.D.D.D.D.D.m.,.,.C , @ @ @ @ X X @ 0 r y t z z z z z z z y $ + + + X X X ; C ,.,.m.D.D.D.D.D.D.D.D.D.D.D.D.",
"D.D.D.D.D.D.D.D.D.D.D.D.D.D.D.D.D.D.D.,.= . . . X . . X q z y y y y y y y y y 0 X             = ,.D.D.D.D.D.D.D.D.D.D.D.D.D.D.D.",
"D.D.D.D.D.D.D.D.D.D.D.D.D.D.D.D.D.D.D.,.= . . . . .   X r z y y z y y y y y y 0 o . . . . . . = ,.D.D.D.D.D.D.D.D.D.D.D.D.D.D.D.",
"D.D.D.D.D.D.D.D.D.D.D.D.D.D.D.D.D.D.D.,.i = = = - = = ; e q q 0 q q q q q 0 q e , - - = = = = i ,.D.D.D.D.D.D.D.D.D.D.D.D.D.D.D.",
"D.D.D.D.D.D.D.D.D.D.D.D.D.D.D.D.D.D.D.D.m.,.,.,.,.,.m.C > X X X o X X o X X @ 5 C ,.,.,.,.,.,.m.D.D.D.D.D.D.D.D.D.D.D.D.D.D.D.D.",
"D.D.D.D.D.D.D.D.D.D.D.D.D.D.D.D.D.D.D.D.D.D.D.D.D.D.D.,.=             .   . X < ,.D.D.D.D.D.D.D.D.D.D.D.D.D.D.D.D.D.D.D.D.D.D.D.",
"D.D.D.D.D.D.D.D.D.D.D.D.D.D.D.D.D.D.D.D.D.D.D.D.D.D.D.,.= . . . . . . . . . X < ,.D.D.D.D.D.D.D.D.D.D.D.D.D.D.D.D.D.D.D.D.D.D.D.",
"D.D.D.D.D.D.D.D.D.D.D.D.D.D.D.D.D.D.D.D.D.D.D.D.D.D.D.m.i = - = - = = - = = : f m.D.D.D.D.D.D.D.D.D.D.D.D.D.D.D.D.D.D.D.D.D.D.D.",
"D.D.D.D.D.D.D.D.D.D.D.D.D.D.D.D.D.D.D.D.D.D.D.D.D.D.D.D.m.,.,.,.,.,.,.,.,.,.,.m.D.D.D.D.D.D.D.D.D.D.D.D.D.D.D.D.D.D.D.D.D.D.D.D.",
"D.D.D.D.D.D.D.D.D.D.D.D.D.D.D.D.D.D.D.D.D.D.D.D.D.D.D.D.D.D.D.D.D.D.D.D.D.D.D.D.D.D.D.D.D.D.D.D.D.D.D.D.D.D.D.D.D.D.D.D.D.D.D.D.",
"D.D.D.D.D.D.D.D.D.D.D.D.D.D.D.D.D.D.D.D.D.D.D.D.D.D.D.D.D.D.D.D.D.D.D.D.D.D.D.D.D.D.D.D.D.D.D.D.D.D.D.D.D.D.D.D.D.D.D.D.D.D.D.D.",
"D.D.D.D.D.D.D.D.D.D.D.D.D.D.D.D.D.D.D.D.D.D.D.D.D.D.D.D.D.D.D.D.D.D.D.D.D.D.D.D.D.D.D.D.D.D.D.D.D.D.D.D.D.D.D.D.D.D.D.D.D.D.D.D."
};
