/* XPM */
static char *e[] = {
/* columns rows colors chars-per-pixel */
"64 64 162 2 ",
"   c #340297",
".  c #35029B",
"X  c #38029F",
"o  c #3602A4",
"O  c #3902A5",
"+  c #3702A8",
"@  c #3B02AC",
"#  c #3E02B0",
"$  c #4103AE",
"%  c #4403B3",
"&  c #4A04B6",
"*  c #4C08B5",
"=  c #4603B8",
"-  c #4C04BA",
";  c #4E08BA",
":  c #5006B5",
">  c #510BB7",
",  c #5205BD",
"<  c #5A06BF",
"1  c #5409BC",
"2  c #5A0ABE",
"3  c #4F04C0",
"4  c #5405C1",
"5  c #5A07C4",
"6  c #5608C1",
"7  c #5C09C5",
"8  c #5E0AC8",
"9  c #6007C3",
"0  c #620BC6",
"q  c #690EC7",
"w  c #660ECC",
"e  c #670FCC",
"r  c #640CC9",
"t  c #6A0FC9",
"y  c #680DCB",
"u  c #680FCA",
"i  c #6A0FCA",
"p  c #6A0FCB",
"a  c #6B0FCB",
"s  c #680ECC",
"d  c #680FCC",
"f  c #690FCC",
"g  c #6B0FCC",
"h  c #6A0FCD",
"j  c #6A0FCC",
"k  c #6A0FCB",
"l  c #6310C7",
"z  c #6311C6",
"x  c #6911C7",
"c  c #6410CB",
"v  c #6710CA",
"b  c #6513CA",
"n  c #6710CC",
"m  c #6512CA",
"M  c #6A10CA",
"N  c #6A10CB",
"B  c #6B10CB",
"V  c #6C10CB",
"C  c #6E13CB",
"Z  c #6E13CA",
"A  c #6E14C9",
"S  c #6910CC",
"D  c #6810CD",
"F  c #6B10CC",
"G  c #6B11CC",
"H  c #6A10CD",
"J  c #6B10CD",
"K  c #6B11CD",
"L  c #6B12CD",
"P  c #6B10CE",
"I  c #6C10CC",
"U  c #6D10CC",
"Y  c #6C10CD",
"T  c #6C11CD",
"R  c #6D11CD",
"E  c #6C11CC",
"W  c #6C13CD",
"Q  c #6E12CD",
"!  c #6C11CE",
"~  c #6D11CF",
"^  c #6C14CC",
"/  c #6C14CD",
"(  c #6E14CC",
")  c #6E15CE",
"_  c #6E15CF",
"`  c #6C13CC",
"'  c #6D18CE",
"]  c #7013CF",
"[  c #7014CF",
"{  c #7015CF",
"}  c #7115CE",
"|  c #751DCF",
" . c #7219CE",
".. c #7A1ECD",
"X. c #6D11D0",
"o. c #6E16D1",
"O. c #6F18D2",
"+. c #7115D0",
"@. c #7115D1",
"#. c #7315D1",
"$. c #7316D0",
"%. c #7216D1",
"&. c #7217D1",
"*. c #7417D1",
"=. c #7416D3",
"-. c #7516D3",
";. c #7216D1",
":. c #7917D0",
">. c #7318D1",
",. c #7719D3",
"<. c #7719D4",
"1. c #7419D2",
"2. c #7819D4",
"3. c #7818D5",
"4. c #7A19D5",
"5. c #7A19D6",
"6. c #7C1FD4",
"7. c #791CD3",
"8. c #7C1ED8",
"9. c #7725D5",
"0. c #7B20D4",
"q. c #7B21D5",
"w. c #7D22D9",
"e. c #7F28DA",
"r. c #8424D7",
"t. c #8528D6",
"y. c #8125D9",
"u. c #8025DA",
"i. c #8627DB",
"p. c #8325DA",
"a. c #8429DA",
"s. c #8528DB",
"d. c #8529DB",
"f. c #862ADA",
"g. c #862ADB",
"h. c #852ADB",
"j. c #8B2EDE",
"k. c #8D2CDD",
"l. c #8C2EDD",
"z. c #8C2CDF",
"x. c #8A2CDD",
"c. c #8D36DD",
"v. c #8D32DE",
"b. c #9135DE",
"n. c #9239DE",
"m. c #923ADE",
"M. c #9539DF",
"N. c #983CDF",
"B. c #8B2FE1",
"V. c #8D31E1",
"C. c #9236E0",
"Z. c #953BE1",
"A. c #983EE1",
"S. c #993DE1",
"D. c #9B40DF",
"F. c #9840E2",
"G. c #9D43E0",
"H. c #9E43E2",
"J. c #9D44E0",
"K. c #9E44E2",
"L. c #9D43E3",
"P. c #A34BE4",
/* pixels */
"% % % = 4 5 5 5 r a ( ( ( ( a a r r r r 4 4 4 , = = = , a o.( m , = = = % @ @ $ 9 ( a ( $.$.$.( = % % % @ @ @ @ @ @ @ # 4 5 5 5 ",
"% % % % 4 5 5 5 r ( ( ( ( ( a a r r r r 4 4 4 4 = = = , a ( ( r , = = = % @ @ % 9 ( ( ( $.$.$.( - % % % @ @ @ @ @ @ @ # 4 5 5 5 ",
"% % % % , 5 5 5 r ( ( a ( a ( a r r r r 4 4 4 4 = = = , a ( ( a , = = = @ @ @ % z ( ( ( $.1.$.( - % % % @ @ @ @ @ @ @ # > 5 5 5 ",
"> > > > 2 5 5 9 a a a a o.$.( ( r r r r 4 = = = - - = = 5 r r r , = = = @ @ @ % 5 m r a ( ( } m % % % % @ @ @ @ % % % - , 5 5 5 ",
"m.m.m.c.1.$.$.$.( a a ( i.a.a.i.r r r 5 % @ @ @ @ @ @ % = = , , = = = = @ @ @ % = , , , , , , = # @ @ % % - - = 5 5 5 5 , , 4 4 ",
"G.G.G.G.0.2.2.2.( a ( ( a.x.x.a.a r r 5 $ @ @ @ @ @ @ $ % = = = = = = = # @ @ % - = , , = = = = # @ @ % % = = , 5 r r 9 4 , 4 4 ",
"G.G.G.A.2.2.2.1.( ( a ( a.x.x.i.a r r 5 % @ @ @ @ @ @ $ % = = = = = = - @ @ @ # = , , = = = = = # @ @ @ = = = , 9 r r 5 5 , 4 4 ",
"D.D.G.S.2.2.2.1. .} }  .i.x.x.e.9 5 5 6 $ @ @ @ @ @ $ $ = , , , , , , = @ @ # % = , , , , , , , % @ @ @ % - - = 5 9 5 5 5 5 5 5 ",
"b.b.b.c.2.2.2.0.S.G.G.A... .1.' - % % @ O o o @ - = , , ( } } ( ( ( ( ( = = = = 8 r r a ( ( ( ( % @ @ @ @ O O @ , 4 4 5 o.$.$.1.",
"c.c.b.c.2.2.2.0.G.P.P.G...} } ( % @ @ @ o o o @ = , , 5 $.1.$.1.1.1.1.} , = = , r ( a ( $.1.1.( % @ @ @ o o o O = 4 4 5 1.2.2.2.",
"c.c.b.c.2.2.1.0.L.P.P.G.2.} $.( % @ @ @ o o o @ = , , 5 o.1.$.1.1.1.1.} , = = , r ( a ( $.1.1.( % @ @ @ o o o @ = 4 4 5 $.1.2.2.",
"a.a.a.a.1.1.1.2.S.G.G.S. .( ( m % @ @ @ @ @ @ $ , 5 < 9 o.o.o.$.$.$.1.( = = = , r a a ( 1.1.1.} % % % $ @ O O @ - , , , o.1.1.1.",
", , > 2 ( 1.1.1. .} } ( , - - - % % # % > 5 5 9 1.0.0.8.r 5 5 9 r 9 r 9 = = % = 5 r r a i.a.a.i.9 5 5 6 % % % $ @ @ O $ , 5 5 5 ",
"- - = , ( 1.1.1.( a a 9 - % % % % % % % 5 r r a e.i.i.e.9 5 5 5 5 9 9 9 - % % - 5 r r a a.x.x.i.q 9 r 5 - % % $ O o o O = 4 4 4 ",
"- = = , ( 1.1.1.( ( ( r - % % % % % % % 5 r 9 r e.i.i.i.9 5 5 8 r r 9 9 - % % - 5 r r ( a.x.x.a.q 9 9 5 - % % @ o o o O = 4 4 4 ",
"% % % = ( o.$.o.m z z 5 - % % % % = - = 5 r r r 2.e.e.2.2 > > 6 5 5 5 2 % % % % > 5 5 9 e.i.i.e.q 9 9 9 = = - % O o o @ - = = = ",
"@ @ @ % , 4 4 , $ @ @ @ @ @ @ % , 4 4 5 o.$.$.( 9 9 9 5 $ O @ @ $ $ % % # @ @ @ @ @ @ $ , , , 2 ( } } ( 5 5 5 > @ @ @ @ @ @ @ O ",
"@ @ @ @ = , , = @ o o O O @ @ % 4 5 5 5 $.1.1.o.5 5 5 > @ o o o @ @ @ @ @ @ @ @ o o o @ - = = , ( $.$.$.5 5 5 6 $ @ @ @ @ o o o ",
"@ @ @ @ = 4 4 = @ o o o @ @ @ % 6 8 5 8 o.1.1.O.9 5 5 6 @ o O O @ @ @ @ @ @ @ @ o o o @ - = = , ( $.$.o.5 5 5 6 @ @ @ @ @ o o o ",
"@ # # % = = = = O o o @ @ $ $ - 5 r r r ( $.$.( 5 4 4 = @ O O O @ @ @ @ @ @ @ @ O o o @ % = - = m ( ( ( 9 5 5 5 % @ @ $ @ o o o ",
"% % % % % % % % O o o @ ; 6 , 5 2.i.i.2.9 9 9 2 $ O O O O @ @ @ @ @ @ @ = = = = @ @ @ @ @ @ @ % = , , 5 O.1.$.$.5 4 6 > @ o o o ",
"% % % % % % % % O o o @ > 5 5 r 0.i.i.0.9 5 5 > @ o o o @ @ @ @ @ @ @ @ = 4 4 , # @ @ @ @ @ @ @ - = = , 1.2.2.1.9 5 5 > @ o o o ",
"% % % % % % % % O o o @ > 5 5 9 0.i.i.e.5 5 5 6 @ o o o @ @ @ @ @ @ @ @ = 4 4 , @ @ @ @ @ @ @ @ = = = , O.2.2.1.5 5 5 4 @ o o o ",
"- = = = % % % % @ @ @ @ 5 9 r m 0.r.i.2.5 4 4 > @ o o o @ @ @ @ @ @ @ % 4 4 4 , % @ % $ @ @ @ # % - - , O.1.1.$.r 9 r 5 $ @ @ @ ",
"( ( ( m 6 6 6 4 , = = > e.x.a.a. .} } } - @ % @ O o o o % = = = - % % = 4 5 5 5 5 5 5 2 % # % % % $ % % 2 5 9 9 2.e.0.2.q 9 z z ",
"$.$.$.o.5 5 5 5 4 4 4 2 a.b.c.c.1.} } ( $ @ @ @ O o o O % = = = = = = = 5 5 8 8 r r r 9 - % % % @ @ @ % , 5 5 9 e.i.i.i.} a ( ( ",
"$.$.$.$.5 5 5 5 4 4 4 5 a.b.b.c.1.$.} ( $ @ @ @ O o o O - = = = = = = = 5 8 8 r r r r 5 - % % % @ @ @ % , 5 5 9 e.i.i.i.( a a a ",
"$.$.$.( 5 6 6 6 4 , , 5 a.x.x.a. .( ( z $ @ @ @ @ + o @ - = = = = , , , 5 5 8 r r a a 9 = = = - @ @ @ $ = , , > 1.e.e.e.( a a a ",
"( ( ( m = - = = = = , , 9 9 9 5 , , - - @ + @ @ @ # # % % % % = 5 r r r r r 9 r $.1.$.$.( ( ( z % @ @ @ O O O @ 5 5 5 5 5 5 8 5 ",
"a a ( m - % % % = = = , 5 5 5 , - % % $ @ @ @ @ % % % % % % % = m ( ( a r r r r 1.2.2.1.$.$.$.( % @ @ @       O , 5 5 5 5 5 8 8 ",
"a a ( r - % % % = = = = 5 5 5 5 % % % $ @ @ @ # % % % % % % % = r ( ( a r r r r 1.1.1.1.1.1.} ( % @ @ @       O , 5 5 5 5 5 5 8 ",
"a a ( r = % % % = = = = 5 5 5 5 - % % % @ @ @ % % % % % % % $ - r ( a a ( ( a ( 2.2.2.2.$.} } ( % @ @ @ O X X O , 5 5 5 5 r 8 8 ",
"} $.$.( , = = = , , = , 5 r r 5 = = = - % % % % % % % % @ O o @ 5 9 9 a V.c.c.C.S.S.S.c.a r r 9 % % $ $ $ $ $ % 4 5 5 5 o.$.o.o.",
"$.$.$.( , , , , , , , , 8 r r 5 = = = - % % % % % % % $ O o o O 5 9 9 ( C.M.A.A.A.A.A.b.a 9 9 9 % % % % % % % % 6 5 5 5 $.1.1.1.",
"$.$.$.( , , 4 , , , , 4 8 r r 5 = = = - % % % % % % % $ @ o o @ 5 9 9 ( b.m.A.A.A.A.A.b.a 9 9 9 - % % % % % % % 6 5 5 5 $.1.1.1.",
"} $.$.m , = , , , , , , r r r r , , , , % % % % % % % $ @ @ @ $ 5 9 5 9 c.b.b.C.C.C.b.c.( r 9 9 = - = = % % % % 4 5 5 5 o.$.o.o.",
"9 9 9 5 = % % % = = % , e.a.i.i.0.0.0.1.% @ @ @ @ @ @ @ % % % - , = = , ( $.$.$.( a a ( 8.e.e.8.5 6 6 6 = = = = 4 4 4 5 5 5 5 5 ",
"5 5 5 4 = % % % % % % : e.x.x.x.r.i.i.0.% @ @ @ @ @ @ @ % - = = = = = , r a a a r r r r e.i.i.e.9 5 5 5 = = = = , 4 4 4 4 4 4 , ",
"5 5 5 , = % % % % % % : e.x.x.x.r.r.i.0.% @ @ @ @ @ @ @ % = = = = = = , r ( ( ( r r r a 2.i.i.i.r 5 8 5 , = = = 4 4 4 4 4 4 4 4 ",
"4 4 4 , % % % % % $ $ - 9.a.a.i.i.i.i.0.* @ % % @ @ @ @ % = = = = = = , r ( a ( ( ( q ( 0.i.i.8.5 6 4 4 - - % - = 4 , , 3 3 3 = ",
"% % = % # @ @ @ O O O O > 2 2 9 0.i.i.0.( ( ( m - % % % % % % % = , , , 4 4 4 5 x.c.c.c.2.2.2. .% # % $ O O X O % % % % % % % % ",
"% % % % @ @ @ O       O - = , < 8.i.i.i.1.1.1.( - % % % % % % % = 4 4 4 4 4 , 5 c.M.M.b.2.1.2.} % @ @ O       X % % % % % % % % ",
"% % % % @ @ @ o       O - = = 5 8.i.i.i.1.1.1.( - % % % % % % % = , 4 4 4 4 , 5 c.A.M.b.2.2.2.} % @ @ O       O $ % % % % % % % ",
"= - - - % % $ $ O O O O % = = , 1.0.0.0.2.1.1.' > - = = - % % - , 4 , , < 5 5 9 c.S.m.b.1.}  .( % @ @ @ O     O - * - = - - - - ",
"r r r r ( ( ( m - $ $ $ @ @ @ @ ; > , 2 x.C.c.c.0.0.2.1.5 , 6 5 5 5 5 5 1.e.2.0.r.t.t.0.> - - - @ @ @ @ % % % = 0.e.e.e.( r r r ",
"( ( ( ( } } $.( - % % @ O o o O % = - > c.m.m.b.t.i.i.e.9 5 5 5 5 5 5 5 e.i.i.i.r.r.r.0.- % % % @ @ @ @ - = = > i.x.x.a.} ( ( ( ",
"( ( ( ( } } $.( - % % @ O o o @ = = = > c.S.m.b.t.r.i.0.9 5 5 5 5 5 5 9 e.i.r.i.i.i.i.0.- % % % @ @ @ @ - = = > a.x.x.a.} a ( ( ",
"r r 9 a  . .1.( : - - % @ O O @ % = - > a.c.c.c.a.r.i.0.9 5 5 5 5 8 5 r 0.i.i.i.0.0.0. .- % % % % # # % = , , 2 a.x.x.a.( r a a ",
"5 5 , 5 i.a.a.i.1. .1.( - $ @ $ % % % - > > > 2 a.V.V.B.1.o.o.o.o.o.o.$.i.a.a.e.> = - - @ @ @ $ % = = , o.1.1.1.a.x.x.r.> = = = ",
"4 4 4 5 a.x.x.x.2.2.2.O.- % % % % % % % % = - , a.c.b.V.2.1.1.1.1.1.1.1.a.x.a.e.- % % % @ @ @ @ = = = , 1.2.2.2.a.x.x.r., = = = ",
"4 4 , 5 a.x.x.x.2.2.1.' - % % % % % % % = = = > a.C.C.B.1.$.1.1.1.1.$.1.a.x.x.e.- % % % @ @ @ @ % = = , 1.2.2.2.x.x.x.i., = = = ",
"4 , = > e.i.e.e.2.2.2. .> - - - % % % % % % % > e.a.a.a.1.$.$.$.$.$.$.1.e.a.a.9.- $ % $ @ @ @ $ = , , ,  .2.2.2.i.a.a.e.= % - = ",
"- - - - , , , 2 i.a.a.i.0.2.0.1.- % % % @ @ O $ > > > 2 9 a r r 5 5 5 5 , - - - @ @ @ @ % % % = ( ( ( (  .1.2.1.5 > > , % @ @ @ ",
"% % % % - = = , a.x.x.x.a.i.i.0.* % % % @ o o O % = = , 9 r r 9 5 5 5 4 - % % $ O o o @ - = = , o.1.1.1.1.1.1.O., = = = @ @ @ @ ",
"% % % % - = = > a.x.x.x.i.i.i.0.- % % % O o o O - = = , 9 r r r 5 5 5 4 = % % % O o o @ - = = , o.1.1.1.1.1.1.O., = = = @ @ @ @ ",
"% % % % % = = = e.i.i.r.a.r.t.0.> - = - @ o o O % = = = 5 r r 8 4 4 , , % % % $ @ O O @ , , , > ( 1.$.$.( ( ( m = % % % @ @ @ @ ",
"- - - - % % % % 6 5 5 9 V.b.C.V.0.2.0.1.$ @ @ @ @ @ @ % = 4 4 4 = % % % @ O O O @ $ @ - 0.i.i.e.( ( ( m , - - % @ O O O @ % % % ",
"= = = = % % % % = 4 4 5 c.M.Z.C.i.i.i.0.$ @ @ @ @ @ @ # = 4 4 = % % % % O o o o $ % % - a.x.x.a.} a ( m - % % @ o o o o $ % % % ",
"= = = = % % % % , 4 4 5 c.m.m.C.i.i.i.0.$ @ @ @ @ @ @ @ = 4 4 = % % % % O o o O $ % % - a.x.x.a.} a ( r - % % % O o o o $ % % % ",
"- - - % % % % % , 4 4 5 a.c.c.c.i.i.i.0.- $ @ @ @ @ @ % , 5 4 , = - - % @ O @ @ % - - > i.x.a.i.x 9 r 9 - % % % @ O O O $ % % % ",
"@ @ @ @ % = = = 4 4 4 4 r a a ( 1.2. .} 2 , 4 4 = = = 4 ( } o.o.5 5 5 5 - - - : ( ( ( } :. . .( - % % @ @ o O @ @ $ $ $ $ @ @ @ ",
"o o o O - = = = 4 4 4 4 5 9 9 9 $.1.1.} 5 5 8 5 4 4 4 5 $.1.1.$.r r r 5 , = = , 1.1.1.1.$.} 1.( % @ @ @ o o o o $ % % % @ @ @ @ ",
"o o o O - = = = 4 4 4 4 5 r 9 r $.1.1.} 5 5 5 5 4 4 4 5 $.1.1.$.r r r 5 = = = , o.1.1.1.$.$.$.( % @ @ @ o o o o $ % % % @ @ @ @ ",
"o o o O - = = = 4 4 4 4 r r r r o.1.1.( 5 5 5 5 4 4 4 5 $.1.1.$.r r r 9 = = = , o.1.1.1.$.$.$.( % @ @ @ o o o o % % % % @ @ @ @ "
};
