/* XPM */
static char *f[] = {
/* columns rows colors chars-per-pixel */
"64 64 143 2 ",
"   c #478C27",
".  c #498E27",
"X  c #478A28",
"o  c #498D29",
"O  c #4A9226",
"+  c #4D9C27",
"@  c #4C922A",
"#  c #4D9C29",
"$  c #53952D",
"%  c #529D2B",
"&  c #56A42C",
"*  c #58A62D",
"=  c #57A82D",
"-  c #5BAA2E",
";  c #56A330",
":  c #59A430",
">  c #5EAD31",
",  c #5FB134",
"<  c #5FB338",
"1  c #60AC2F",
"2  c #60AF32",
"3  c #62B235",
"4  c #68B535",
"5  c #66B835",
"6  c #69B837",
"7  c #65B639",
"8  c #68B73B",
"9  c #66B83A",
"0  c #6ABA3B",
"q  c #6BBA3B",
"w  c #6BBB3B",
"e  c #68B83B",
"r  c #69B83C",
"t  c #69B93C",
"y  c #6ABA3C",
"u  c #6BBA3C",
"i  c #6BBB3C",
"p  c #6CBA3C",
"a  c #6DBA3C",
"s  c #6FBD3E",
"d  c #6FBE3F",
"f  c #69B93B",
"g  c #70BD3C",
"h  c #71BD3C",
"j  c #70BE3C",
"k  c #70BD3E",
"l  c #71BC3F",
"z  c #71BD3F",
"x  c #70BE3E",
"c  c #70BE3F",
"v  c #71BE3F",
"b  c #72BE3D",
"n  c #72C13D",
"m  c #76C43F",
"M  c #77C53F",
"N  c #75C33F",
"B  c #78C63F",
"V  c #78C73F",
"C  c #78C53F",
"Z  c #6FBF41",
"A  c #70BE40",
"S  c #71BE40",
"D  c #74C340",
"F  c #75C340",
"G  c #74C440",
"H  c #75C440",
"J  c #75C541",
"K  c #76C440",
"L  c #77C541",
"P  c #77C640",
"I  c #77C540",
"U  c #78C640",
"Y  c #78C740",
"T  c #78C641",
"R  c #79C742",
"E  c #7AC742",
"W  c #79C641",
"Q  c #78C840",
"!  c #78C841",
"~  c #78C842",
"^  c #79C843",
"/  c #7AC843",
"(  c #7CC942",
")  c #7DC942",
"_  c #7CCA42",
"`  c #7DCA42",
"'  c #7DC942",
"]  c #82CC45",
"[  c #8DD24F",
"{  c #8FD34F",
"}  c #8FD250",
"|  c #8ED252",
" . c #8FD352",
".. c #8FD453",
"X. c #8ED352",
"o. c #90D151",
"O. c #90D552",
"+. c #90D453",
"@. c #93D654",
"#. c #93D755",
"$. c #94D754",
"%. c #96D756",
"&. c #92D653",
"*. c #92D854",
"=. c #93D855",
"-. c #96D855",
";. c #96D856",
":. c #95D955",
">. c #98DA57",
",. c #98DC57",
"<. c #99DC57",
"1. c #9BDD57",
"2. c #99DB57",
"3. c #97DA58",
"4. c #98D958",
"5. c #9BDB58",
"6. c #98DC58",
"7. c #98DD58",
"8. c #99DC59",
"9. c #9BDC58",
"0. c #9ADC59",
"q. c #9BDD59",
"w. c #9BDD5A",
"e. c #9CDD58",
"r. c #9CDC59",
"t. c #9CDD59",
"y. c #9CDE59",
"u. c #9CDD5B",
"i. c #9CDE5A",
"p. c #9CDF5A",
"a. c #9BDD5C",
"s. c #9BDD59",
"d. c #9DE05A",
"f. c #A4E45B",
"g. c #A3E25D",
"h. c #A3E35D",
"j. c #A3E25E",
"k. c #A3E35E",
"l. c #A4E35D",
"z. c #A4E35E",
"x. c #A4E45D",
"c. c #A4E45E",
"v. c #A4E35E",
/* pixels */
"r r r c a.g.g.a.c r r 7 & & & & & & & & > > 2 > # # # # > 2 2 > & & & - 7 r r 7 > > > > & & & & > > > - & & & & X X X X > < > 2 ",
"r r r c a.g.g.a.c r r 7 * & & & & & & * > 2 2 > # # # # > 2 2 > & & & - 7 r r 7 2 > > > & & & & > - - - & & & & X X X @ > 4 2 2 ",
"r r r c a.g.g.a.c 8 r 7 * & & & & & & & > 4 4 - # # # # > 4 2 > & & & * 7 r r 7 2 > > > & & & & - - - - & & & & X X X X > < 2 2 ",
"r r r r -.,.a.-.c r r r - * * - - 1 - > > > > > * : : * > > > > & & & & 7 r r 7 4 4 4 4 - * * - 4 4 4 4 & & & & O X X @ > 4 2 2 ",
"7 8 r r 4 4 4 6 m ) Y F r 7 7 r @.a.a.| $ X X % | ,.,.[ $ . X @ # # # % 4 7 7 8 F Y F F r 7 7 r @.a.a.@.4 > > - & & & & > 4 2 2 ",
"r 8 r 7 2 > > 4 V ) ) ) r r 8 r a.g.g.-.$ X X $ ,.g.g.-.$ X X X # # # # 4 7 7 8 Y ) ) F r r r c a.g.g.,.4 2 4 > & & & & > 4 2 2 ",
"8 8 r 7 4 2 2 4 V ) ) ) r r 8 A a.g.g.-.$ X X $ a.g.g.@.$ X X X # # # # 4 7 7 8 Y ) ) ) r r r c a.g.g.a.4 > 2 > & & & * 2 4 2 2 ",
"r r r r 4 2 > 4 m F m F r 7 7 r -.a.,.} % X X % @.a.a.@.$ X X @ # # # & 4 8 8 r m F m m r r r c -.-.,.| 4 > > > & & & & > > > > ",
"V Y Y m 4 2 2 > & % & & & - * - 4 4 4 4 - - - - 4 4 4 4 > > > > 7 7 7 7 m Y Y m - - - - 6 r r r 2 1 1 : @ X X X X . X @ & & & & ",
") ) ) Y 4 2 4 > # # # # & & & & > - > > > > > - 2 2 2 2 2 2 2 4 7 r r r Y ) ) F - & & - 6 r r r * & & % X X X X X X X X & & & & ",
") ) ) ) 4 2 2 > # # # + & & & & > > > > > > > > 2 2 2 2 > > 2 4 7 r r r ) ) ) m - & & - r r r r - & & & X X X X X X X @ & & & & ",
"m m m c 4 > > > % # # # & * * - > > > 4 4 4 4 4 > > > > > 4 4 4 7 7 7 7 m F m m - & & - r r r r - & & & O O @ @ . X X @ & & & & ",
"@ @ @ @ & * & * > > - > 7 7 7 7 4 4 4 r -.,.,.@.& # # & < 4 4 4 & # # % - - - - > > > > 7 r r 7 > > > > > > > > & & & & + + + + ",
"X X X X & & & * > > - 4 7 r r 8 8 7 4 r a.g.g.,.& # # # 4 7 7 < # # # # & & & & > 2 2 4 7 r r 7 4 2 > 2 > > 4 > & & & & # # # # ",
"X X X X & & & * - > > 2 7 r r 8 7 7 4 r a.g.g.-.& # # # 4 4 7 < # # # + & & & & > 4 4 4 7 r r 7 4 2 2 2 > 2 2 > * & & & # # # # ",
"@ @ @ @ & & & * > 4 4 4 4 7 7 7 7 7 4 r -.a.a.| & # # & 4 8 7 7 & & & & & & & & > > > > 7 7 7 7 4 < 4 < > > > > * & & & % # # # ",
"m m m c - & & * 4 r r 7 - * & - 7 r r r c c c r 1 - - - 8 r r r m F F c @ . . X . . X O & * & - 4 4 4 < % # # % - > > > > > > > ",
") ) ) V - & & * r r r r - & & - 8 r r r r r r 6 4 > - 4 r r r r Y ) ) F @ . . X X X X X & & & & 4 7 7 < # # # # - > > > 2 2 2 2 ",
") ) ) V - & & * r r r r * & & - r r r r r r r 6 4 > > 4 r r r r Y ) ) F @ X X X X X X . & & & = 7 7 8 < # # # # - - > > > > 2 2 ",
"] ] ] Y - & & & 4 4 4 4 - - - - 4 4 4 4 r r r r 4 2 2 4 c m m m m m m c @ @ @ @ @ X X O & & & * < < 7 > % + + & - > > > 2 2 4 4 ",
"d.a.a.@.* # # # O O O % c V V c $ @ @ @ 7 r r r r 7 7 r -.,.a.@.2 - - - 4 7 7 4 > - - - & & & & O @ @ O - > - > > 2 2 4 7 7 7 7 ",
"g.g.g.-.* # # # X X X @ m ) ) m @ X X @ 7 r r r r r r A a.g.g.,.> & & * 7 r r 7 4 > > > & & & & X X X @ - > > > 2 2 2 4 7 r r r ",
"g.g.g.a.& # # # X X X @ m ) ) m @ X X @ 7 r r r r r r A a.g.g.,.2 & & * 7 r r 7 4 > > - & & & & X X X @ - > > > > 4 2 4 7 7 7 7 ",
",.,.-.| & + # # @ @ @ % c Y Y c @ @ @ @ 7 7 7 7 7 r 7 r [ -.-.[ > & & * 7 7 7 7 4 > 4 > - - - & @ @ @ @ - - - - 2 4 4 4 7 7 7 7 ",
"& & & & & & & - c V m m 4 4 4 4 4 < < < - * * - > 4 4 > & & & & & & & & & * * > 4 4 4 4 4 r r 7 4 < < < = & & = 4 7 7 7 4 4 2 2 ",
"+ # # # & & & - F ) ) Y 4 > > < 4 8 8 4 & & & & > > > - + # + # & & & & & & & * 4 7 8 8 r r r r 4 4 8 < & & & & 7 r r 7 2 2 > > ",
"# # # # & & & - F ) ) F 4 > 2 < 7 7 7 4 & & & & > > > - # # # # & & & & & & & * 4 7 8 8 r r r r 4 4 7 4 & & & & 7 r r 7 2 2 2 2 ",
"# # # % & & & - m F F m 4 > 2 < 4 4 4 4 & & & & 4 4 4 > % # # # * - * - - - - - < 4 4 4 4 4 4 4 4 4 4 4 - - > > 7 7 7 4 4 4 4 4 ",
"> > > > & & & & - - - - > > > > > < < > # # + & m ) Y m - & & & 7 7 7 7 7 r r 4 - & & & O . X @ > < 4 4 m F F m & # # & 4 7 7 7 ",
"2 2 4 > & & & & & & & & > > > > > > < > + # # & m ) ) F - & & * 7 r r r r r r 7 & & & & X X X X > 2 4 4 ~ ) ) F % + # # 7 7 7 7 ",
"2 2 4 > & & & & & & & & > 2 > > > > < > # # # & m ) ) m - & & - 7 r r r r r r 8 = & & & X X X X > < 4 4 F ) ) m % + # # 7 7 7 7 ",
"> > > > > 2 2 > & & & & 4 4 4 4 4 4 4 > # # @ % m Y Y m - & & - r r r r r r r 6 & & & % @ X X O > > > 4 F ) Y m & + # # > 7 7 7 ",
"& * & 2 | a.a.| > & & - m Y Y F 6 6 r 4 @ X X @ 6 r r r - & & - m Y Y ) Y Y Y m @ X X @ > 4 4 > - * & - r r r 7 & & & & % % % # ",
"& & & 2 a.g.g.,.2 & & - F ) ) ) r r r 4 @ X X @ 4 r r 5 - & & - Y ) ) ) ) ) ) m @ X X @ 4 8 7 4 & & & & 7 r r 7 - & & & # # # # ",
"& & & 2 a.g.g.,.2 & & - F ) ) Y r r r 4 @ X X @ 7 r r 8 - & & - Y ) ) ) ) ) ) m @ X X @ < 7 7 4 & & & & 7 r r 7 * & & & # # # # ",
"* * * 2 | -.-.| 2 - - - m Y Y m r r r 4 @ X X @ r r r 6 & & & * m Y F Y Y Y Y c $ X . @ < 7 7 4 - & & - r r r r - * & & # # # # ",
"7 7 7 7 % $ $ % c m m m 4 4 4 4 4 4 4 > # + O % m ) ) c @ X X O * > > > 7 8 8 7 < < < < 7 7 7 4 > > > 4 m Y Y m 4 > > > X X X X ",
"r r r 7 @ X X @ m ) ) F 4 > 2 2 2 4 4 - # # + & m ) ) m @ X X . & & & & 4 7 7 7 7 7 7 7 7 7 7 4 < 2 > 4 F ) ) m 4 2 > > X X X X ",
"r r r 7 @ X X @ m ) ) F 4 > 2 2 4 2 2 > # # # & m ) ) m @ X X . & & & & 4 7 7 7 7 7 7 7 7 7 7 4 < 2 4 4 F ) ) F 4 4 4 > X X X X ",
"c c c r O . . @ m ) Y m 4 4 4 4 > > > > # # # & m V V c @ @ @ @ > 2 2 2 2 > < < 4 4 4 4 4 4 4 < < 2 2 4 m V V m 4 4 4 > O X . X ",
"a.a.a.@.- & & * 7 r r r F Y Y c @ X . O & & & & 4 4 4 4 7 7 7 r @.,.,.[ % X X @ & & & & * * * - > > > > 4 4 4 4 7 7 7 7 > > > > ",
"g.g.g.a.2 & & - 7 r r r ) ) ) m @ X X X & & & * > 2 2 4 7 r r c a.g.g.-.$ X X X & & & & & & & & > 2 > > > - > 4 7 7 7 7 4 4 4 2 ",
"g.g.g.a.2 & & - 7 r r r ) ) ) m @ X X X & & & * > > 2 4 7 r r c a.g.g.-.$ X X X & & & & & & & & > > 2 2 > > > 2 7 r r 7 4 2 2 2 ",
",.,.,.| 2 - - - 7 7 7 r ) ) ) m % @ @ @ & & & * > 2 4 4 7 7 7 r -.a.a.@.% @ @ @ & & & & & & & & 4 4 4 4 > > > > 7 7 7 7 > > > > ",
"2 2 2 1 4 6 r 4 - & * > m ) ) Y 7 7 7 4 & & & & 4 7 7 4 2 2 2 4 r r r r 4 < < < > > > - + # # & m Y Y m & # + + # % % & - > > > ",
"& & & * 5 r r 6 * & & - m ) ) Y r r r 7 - & & & 4 7 7 4 > > > > 7 r r 8 7 4 7 7 4 2 2 - # # # & m ) ) m % # # # # # # % > > > > ",
"& & & * 5 r r 7 - & & - m ) ) Y r r r 7 = & & & 7 7 7 4 4 > > 4 7 r r 8 7 7 7 7 < 4 4 - # # # & m ) ) m % # # # # # # % > > > > ",
"- - - - 6 r r 7 & & & * m Y Y F c A A r - & & = < 4 7 4 > > - - 7 r 8 8 7 7 7 4 4 2 2 - # # # & m ) ) m * & & & # @ @ % > 4 2 2 ",
"V V m m r r r 7 @ . X O 2 4 4 4 -.a.a.-.r 4 7 4 - - * & @ X X @ > 4 > 4 4 7 7 4 2 > > - # # # & m ) ) ) V m m r O X X @ 4 7 7 7 ",
") ) ) Y r r r 7 @ X X . - > > 4 a.g.g.a.r 4 7 4 & & & & . X X X > > > > 4 7 7 4 > > > - # # # & m ) ) ) ) ) ) m @ X X @ 7 r 7 7 ",
") ) ) ) r r r 7 @ X X X - > > 4 a.g.g.a.r 4 7 4 * * * & X X X . - > > > 4 7 7 4 < > - - # # + & m ) ) ) ) ) ) m O X X @ 7 r r r ",
"m m m m r 7 7 4 @ X X X - < > 4 | -.-.| r r r r * % & % $ $ $ % 2 4 4 4 4 7 7 7 > > - - * * * > V ) ) ) V Y V c @ . . @ 7 r r r ",
"@ @ @ @ * * * & X X X @ < 4 7 4 & & & 2 @.a.a.| $ X X $ @.,.,.@.) Y Y F r 8 8 7 - & & 2 @.a.a.-.) ) ) V 4 4 4 2 & & & & 4 r r r ",
"X X X X & & & & X X X @ < 7 7 4 # # # * -.g.g.-.$ X X $ a.g.g.a.] ) ) Y r 8 8 7 * & & 2 a.g.g.d.] ) ) m 4 > > - & & & - r r r r ",
"X X X X & & & & X X X . < 7 7 4 # # # * ,.g.g.@.$ X X $ a.g.g.a.] ) ) ) r 8 8 7 * & & 2 ,.g.g.d.] ) ) m 2 > > > & & & - r r r r ",
"$ $ @ $ * - - * % $ $ % > < 4 > & % & > @.a.a.| % @ @ % @.a.a.-.Y m F m r 8 8 7 - * * 2 | 3.,.-.) Y Y m > > > > & & & - 4 4 4 4 ",
"Y m F Y Y Y Y ) @.a.a.| & # # & c Y Y m r r r r 7 7 7 7 r r r r & # # & 7 r r r 7 7 7 4 - - - > 4 8 8 4 - & & & - > > > @ @ @ @ ",
") ) ) ) ) ) ) ] a.g.g.,.& + # & m ) ) Y 8 7 7 7 8 r r r 8 8 8 7 # # # # 7 8 r r r r r 7 & & & = 4 7 4 4 & & & & > 4 > - X X X X ",
") ) ) ) ) ) ) ] a.g.g.,.& # # & m ) ) Y 8 7 7 7 8 r r r 7 7 8 7 # # # % 4 7 7 7 r r r 7 & & & & 7 7 4 4 & & & & > 2 4 > X X X X ",
"m m m m Y Y Y ) @.,.,.} * # # & F ) ) Y 7 < < 4 8 r r r r r r 7 & # # & 7 8 7 7 7 7 7 4 = & & = 7 4 4 < = & & & > > 4 - @ X X X ",
"- - - - r r r r 4 4 4 4 > > > 4 V ) ) m & # # & 7 r r r r r r 7 > > > > 7 7 7 7 & # # & < 4 4 < = & & = > > > > > > > - & & & & ",
"& & & * 7 r r 7 > > > > > > - 4 F ) ) m & # # % 7 r r r r r r 7 4 4 > 4 4 7 7 < # # # # 7 7 7 4 & & & & > 4 4 > > > > - & & & & ",
"& & & * 7 r r r 2 > > > > > > 4 F ) ) m & # # # 7 r r r r r r 7 4 2 > 4 4 7 4 < # # # # 7 7 7 7 & & & & > > > > > > > - & & & & ",
"& & & * 7 r r r 2 > > > > > > 4 F ) ) m & # # % 7 r r r r r r 7 4 2 > < 4 7 4 4 # # # # 7 7 7 4 & & & & > > 2 > > > > > & & & & "
};
