/* XPM */
static char *p[] = {
/* columns rows colors chars-per-pixel */
"64 64 201 2 ",
"   c #1A2A26",
".  c #343927",
"X  c #2B3222",
"o  c #433E21",
"O  c #374235",
"+  c #774C13",
"@  c #784D12",
"#  c #7D5318",
"$  c #6D4A17",
"%  c #4B4D38",
"&  c #4D4C32",
"*  c #7A5522",
"=  c #384541",
"-  c #786B56",
";  c #7C766D",
":  c #7D786E",
">  c #75756C",
",  c #68787F",
"<  c #76746D",
"1  c #824F0C",
"2  c #83500D",
"3  c #88550F",
"4  c #8D5B15",
"5  c #825519",
"6  c #84581E",
"7  c #8D5D19",
"8  c #875614",
"9  c #925C15",
"0  c #915F18",
"q  c #8F601E",
"w  c #9C6414",
"e  c #92621D",
"r  c #9B6618",
"t  c #A56A14",
"y  c #A36813",
"u  c #AB7A1E",
"i  c #A97113",
"p  c #825922",
"a  c #8E6427",
"s  c #916322",
"d  c #986B28",
"f  c #957239",
"g  c #A46F28",
"h  c #A97623",
"j  c #B47625",
"k  c #B67826",
"l  c #BA7B25",
"z  c #BA7E2B",
"x  c #A77D38",
"c  c #827156",
"v  c #837B6E",
"b  c #897F6E",
"n  c #827D72",
"m  c #BF841C",
"M  c #BA841B",
"N  c #BA8328",
"B  c #AE8731",
"V  c #BB8938",
"C  c #B68C37",
"Z  c #C1861B",
"A  c #C4891C",
"S  c #CC8C1A",
"D  c #D08E1A",
"F  c #D38F14",
"G  c #DD9614",
"H  c #DF9913",
"J  c #D5931B",
"K  c #DB951A",
"L  c #DE9A18",
"P  c #D49216",
"I  c #ED9E0D",
"U  c #E2970F",
"Y  c #E19914",
"T  c #EA9D11",
"R  c #EDA20E",
"E  c #F5A40D",
"W  c #FBA70B",
"Q  c #F7AA0D",
"!  c #FCAA0B",
"~  c #F5BA0B",
"^  c #EBA317",
"/  c #F1AB11",
"(  c #C58E2B",
")  c #C58C20",
"_  c #D89A28",
"`  c #C1893B",
"'  c #C69536",
"]  c #D89E33",
"[  c #C7932B",
"{  c #DBA134",
"}  c #DDA338",
"|  c #E0A332",
" . c #FFC907",
".. c #FDC409",
"X. c #FFC908",
"o. c #FEC507",
"O. c #B38C43",
"+. c #BB964A",
"@. c #BE9443",
"#. c #B1914C",
"$. c #BCA25B",
"%. c #8B806E",
"&. c #848074",
"*. c #8B857D",
"=. c #878279",
"-. c #988E7C",
";. c #B89D6D",
":. c #9F8943",
">. c #C79945",
",. c #C99B46",
"<. c #CC9E4A",
"1. c #C19445",
"2. c #C49E52",
"3. c #D09F49",
"4. c #D3A54E",
"5. c #D3A347",
"6. c #CCA253",
"7. c #D3A651",
"8. c #D5A956",
"9. c #D6AD5B",
"0. c #D8AE5D",
"q. c #CDA049",
"w. c #DAB469",
"e. c #DAB265",
"r. c #D7B57A",
"t. c #CAAB73",
"y. c #E4BE7B",
"u. c #357F98",
"i. c #737E82",
"p. c #797F81",
"a. c #447D88",
"s. c #3C8198",
"d. c #348CAA",
"f. c #3F8DA8",
"g. c #3E90AC",
"h. c #488B99",
"j. c #588B8B",
"k. c #7A8083",
"l. c #738083",
"z. c #6C8F98",
"x. c #418EA9",
"c. c #478EA7",
"v. c #4591AB",
"b. c #569AA6",
"n. c #429CBC",
"m. c #4A9DBB",
"M. c #519FBA",
"N. c #7499AB",
"B. c #6C97A9",
"V. c #75A6BD",
"C. c #7AA7BF",
"Z. c #77A8BF",
"A. c #7BA8BE",
"S. c #77A2B0",
"D. c #51A0BC",
"F. c #7FAAC1",
"G. c #77A8C0",
"H. c #878785",
"J. c #8C8C8C",
"K. c #8D8D8D",
"L. c #8C8D8E",
"P. c #8E8E8E",
"I. c #8C8C8C",
"U. c #888886",
"Y. c #928E85",
"T. c #8D8E90",
"R. c #899B97",
"E. c #829FA9",
"W. c #84A4AB",
"Q. c #89A6AA",
"!. c #80AABF",
"~. c #91A296",
"^. c #D6BB8A",
"/. c #E1BE88",
"(. c #E0BF85",
"). c #E9C58B",
"_. c #EDC98B",
"`. c #E4C48B",
"'. c #EBCB93",
"]. c #EFCF9C",
"[. c #E8C997",
"{. c #EFD09D",
"}. c #F0D19E",
"|. c #EED2A2",
" X c #ECD2A8",
".X c #F0D3A2",
"XX c #F6DCAC",
"oX c #F6DCAB",
"OX c #F7DEB0",
"+X c #FAE2B6",
"@X c #FCE6BB",
"#X c #FDE8BE",
"$X c #80AAC1",
"%X c #80AAC0",
"&X c #DBD5C3",
"*X c #DCE0DF",
"=X c #F8E4C1",
"-X c #F6EEDD",
";X c #F8F0DE",
":X c #DDE1E0",
">X c #FBFDFC",
/* pixels */
"J.J.J.J.J.J.J.J.J.J.J.J.J.J.J.J.J.J.J.J.J.J.J.J.J.J.J.J.J.J.J.J.J.J.J.J.J.J.J.J.J.J.J.J.J.J.J.J.J.J.J.J.J.J.J.J.J.J.J.J.J.J.J.J.",
"J.J.J.J.J.J.J.J.J.J.J.J.J.J.J.J.J.J.J.J.J.J.J.J.J.J.J.J.J.J.J.J.J.J.J.J.J.J.J.J.J.J.J.J.J.J.J.J.J.J.J.J.J.J.J.J.J.J.J.J.J.J.J.J.",
"J.J.J.J.J.J.J.J.J.J.J.J.J.J.J.J.J.J.J.J.J.J.J.J.J.J.J.J.J.J.J.J.J.J.J.J.J.J.J.J.J.J.J.J.J.J.J.J.J.J.J.J.J.J.J.J.J.J.J.J.J.J.J.J.",
"J.J.J.J.J.J.J.J.J.J.J.J.J.J.J.J.J.J.J.J.J.J.J.J.J.J.J.J.J.J.J.J.-.-.-.-.J.J.J.J.J.J.J.J.J.J.J.J.J.J.J.J.J.J.J.J.J.J.J.J.J.J.J.J.",
"J.J.J.J.J.J.J.J.J.J.J.J.J.J.J.J.J.J.J.J.J.J.J.J.J.J.J.J.J.J.J.%._ ^ ^ _ %.J.J.J.J.J.J.J.J.J.J.J.J.J.J.J.J.J.J.J.J.J.J.J.J.J.J.J.",
"J.J.J.J.J.J.J.J.J.J.J.J.J.J.J.J.J.J.J.J.J.J.J.J.J.J.J.J.J.J.J.%.Y ! ! G b J.J.J.J.J.J.J.J.J.J.J.J.J.J.J.J.J.J.J.J.J.J.J.J.J.J.J.",
"J.J.J.J.J.J.J.J.J.J.J.J.J.J.J.J.J.J.J.J.J.J.J.J.J.J.J.J.J.J.T.%.H ! ! H %.T.J.J.J.J.J.J.J.J.J.J.J.J.J.J.J.J.J.J.J.J.J.J.J.J.J.J.",
"J.J.J.J.J.J.J.J.J.J.J.J.J.J.J.J.J.J.J.J.J.J.J.H.b %.%.%.v : : c G E W G c : : v b %.%.%.J.J.J.J.J.J.J.H.p.k.k.k.U.J.J.J.J.J.J.J.",
"J.J.J.J.J.J.J.J.J.J.J.J.J.J.J.J.J.J.J.J.J.J.J.b A Y H F 0 5 5 7 F H L J 7 5 5 7 D Y Y A b J.J.J.J.J.J.p.z.N.N.z.k.J.J.J.J.J.J.J.",
"J.J.J.J.J.J.J.J.J.J.J.J.J.J.J.J.J.J.J.J.J.J.J.%.Y ! ! I y 0 0 w D K K J w 0 0 w I ! ! Y b J.J.J.J.J.J.k.N.%X%XN.k.J.J.J.J.J.J.J.",
"J.J.J.J.J.J.J.J.J.J.J.J.J.J.J.J.J.J.J.J.J.J.J.%.Y ! ! I y 0 0 w D K K A w 0 0 w I ! ! Y %.J.J.J.J.J.J.k.N.%X%XN.k.J.J.J.J.J.J.J.",
"J.J.J.J.J.J.J.J.J.J.J.J.J.J.J.J.J.J.J.H.: : : c G W E I i w w i F H H J t w w i U I I D - : : : v v v > N.%X%XN., k.k.p.U.J.J.J.",
"J.J.J.J.J.J.J.J.J.J.J.J.J.J.J.J.J.J.J.: # 5 5 7 D H K H ~ ~ ~ ~ ......~ R I I U i w y w 5 5 5 7 g h u x W.%X%XC.N.N.N.z.p.J.J.J.",
"J.J.J.J.J.J.J.J.J.J.J.J.J.J.J.J.J.J.J.: 5 0 0 w A K K L ..X. .X. . . .o.! W W I w 0 0 0 0 0 0 w M Z Z C W.%X%X%X%X%X%XN.k.J.J.J.",
"J.J.J.J.J.J.J.J.J.J.J.J.J.J.J.J.J.J.T.: 5 0 0 w A K K L ..X.X.X. . . .o.! W W I w 0 0 0 0 0 0 w M Z Z C Q.%X!.!.%X%X%XN.k.J.J.J.",
"J.J.J.J.J.J.J.J.J.J.J.H.b %.%.b v : : - 0 y w t F L L ^ ..X.X.X.........Q E E I t w w w w w w r B C C :.W.%X!.Z.G.Z.F.B.k.J.J.J.",
"J.J.J.J.J.J.J.J.J.J.J.b A Y H F 0 5 5 0 G I I R ~ ......X. . ...! ! ! Q Y K K G J D A A D D D ( ~.Q.Q.W.!.%X%XZ.D.m.m.x.i.J.J.J.",
"J.J.J.J.J.J.J.J.J.J.J.%.Y ! ! I y 0 0 y I ! ! ! .. .X.X.X.X. .o.! W W E K K K K K K K K K K K ' Q.F.F.F.F.%X%XV.m.n.n.x.i.J.J.J.",
"J.J.J.J.J.J.J.J.J.J.J.%.G ! W I w 0 0 w I ! W ! ..X.X.X.X.X. .o.! W ! E K K K K K K K K K K K ' Q.F.%X%X%X%X%XZ.m.n.n.x.i.J.J.J.",
"J.J.J.J.J.J.J.J.J.J.J.b D I I U t w w t T E E Q ................Q E E / | } { { ) A A A J K K ' W.G.C.Z.F.%X%XV.v.x.x.s.i.J.J.J.",
"J.J.J.J.J.J.J.J.J.J.J.: 0 y y t A D D D K L L Y Q ! ! ! ! ! ! Q Y K G { =X-X-X&X% . . & A K K ' b.m.m.M.Z.%X%XN., i.i.i.U.J.J.J.",
"J.J.J.J.J.J.J.J.J.J.J.: 5 0 0 w A K K K K K K H E W W W W W W E L K K } -X>X>X:X=     . A K K ' b.n.n.m.V.%X%XN.k.J.J.J.J.J.J.J.",
"J.J.J.J.J.J.J.J.J.J.T.: 5 0 0 w A K K K K K K H E W ! ! ! ! ! E L K K } -X>X>X*X=     . m K K ' b.n.n.m.Z.%X%XN.k.J.J.J.J.J.J.J.",
"J.J.J.J.J.J.J.H.v v b - 5 0 0 w M A A ) ] } } | / E E E E E E R K J J ] =X-X-X&X% . . & A L G [ z.b.b.b.V.V.V.B.> v v v v v v v ",
"J.J.J.J.J.J.J.n h A A M w 0 0 5 o . . % &X-X-X=X| K L K A A A A A A A ) ' ' ' ' h u u M ^ E E ^ C B B :.h.g.g.h.f g g g j u u h ",
"J.J.J.J.J.J.J.v A K K D w 0 0 5 X     = *X>X>X-X} K K J A M M M M M Z Z M M M M Z Z Z A E ! ! E A Z Z B h.d.d.h.x l k l M Z Z Z ",
"J.J.J.J.J.J.J.v A K K D w 0 0 5 X     = *X>X>X-X} K K J Z Z M M M M M M Z Z Z M M Z M A E W ! E A M Z B h.d.d.h.x l k l M Z Z Z ",
"k.k.k.k.k.k.k.: N D D A t w w 7 . . . % &X;X-X=X{ J J J ( ( ( ( ( ( ( ( A Z Z Z Z Z M A T E E T Z M M B j.h.h.j.x k k k u u u u ",
"N.N.N.N.N.N.N.z.d w w t A D D A u u u u ] } } { ) Z Z ( y.).).).).).).y._ J J J Z M M M l l l l l l l z $.$.$.$.r 0 w 7 - v v v ",
"!.%X%X%X%X%X%XW.a 0 0 w D K K J Z Z Z A J K K J Z M M ( ).}.}.}.{.{.{._._ K K J Z Z Z M k k k k k k k z 3.4.4.,.e 0 0 5 : J.J.J.",
"!.!.!.%X%X%X%XW.a 0 0 w D K K J Z Z M Z J K K J Z M M ( ).}.}.}.}.}.}._._ K K J Z Z Z M l k k k k k k z ,.4.4.,.e 0 0 5 : J.J.J.",
"Z.Z.Z.Z.F.%XF.W.f a a d A J J J Z M M Z J J J J ( ( ( ' r.^.^.^.^.^.^.r._ K _ _ Z M M N z z z z V V V ` 8.9.9.6.e 7 0 5 : J.J.J.",
"m.m.m.M.C.%X%XZ.W.E.E.R.B l l l M Z Z Z Z Z Z ( y.).).^.% O O O O O O % @.5.5.,.z k k z ,.3.<.7.{.XXXXXXXXXXOX[.s 2 2 @ : J.J.J.",
"n.n.n.m.V.%X%X%X%X%X%XW.x k k l M M Z Z M Z M ( ).}.}.^.O             . +.4.4.<.z k k z <.4.4.9.OX@X#X#X@X@X=X Xs 2 2 + : J.J.J.",
"n.n.n.m.Z.%X!.!.!.!.%XW.x k k l M M M M Z Z Z ( ).{.}.^.O             . +.4.4.<.z k k z ,.4.4.9.XX@X@X@X@X@X@X|.s 2 2 + : J.J.J.",
"x.x.f.v.V.Z.Z.Z.V.V.V.S.x k k l Z A A Z M M M ( y._._.^.% . . . . . . % 2.9.9.7.` V V ` 8.9.9.w.XX@X@X+XXXXXXX[.s 2 2 + : J.J.J.",
"i.i.l., c.m.m.m.v.f.f.h.x k k l J J J J l k k l _ _ _ _ @.+.+.+.+.+.+.2.`.'.'.'.).).).'.XXOXXXXX|.{.|.'.e.9.0.6.7 2 2 + : J.J.J.",
"J.J.P.i.x.n.n.n.d.d.d.h.x k k l J K K J l k k l J K K _ 5.4.4.4.4.4.4.0.'.{.].].{.{.]..X@X@X@X@X.X].].'.8.4.4.>.7 2 2 + : J.J.J.",
"J.J.J.i.x.n.n.n.d.d.d.h.x l k l J K K J l k k l J K K _ 5.4.4.4.4.4.4.9.'.].].].].].].|.@X@X@X@X|.].].'.9.4.7.,.7 2 2 + : J.J.J.",
"J.J.J.i.s.x.x.f.s.u.u.a.f k j k _ _ _ _ ` ` ` ` ] { { { 8.9.9.9.9.9.9.e.'.].].]..X.X.X.XXXXXXXXX.X.X.X'.6.,.<.1.e 7 7 # : J.J.J.",
"J.J.J.U.i.i.l.i.i.i.i.> # 3 3 e y._._._..XXXoXXXXXXXXXoX'.'.'.'.XXXXXXXX}.].].|.+X+X+XXXe.9.9.w.XX@X@X|.d 7 7 e ' ,.,.O.n J.J.J.",
"J.J.J.J.J.J.J.J.J.J.J.: + 2 1 s /.}.]..X@X#X@X@X@X@X=X@X|.].].|.@X@X@X@X}.].].|.+X@X@XXX9.4.4.9.XX@X=X|.s 1 1 7 ,.4.4.+.&.J.J.J.",
"J.J.J.J.J.J.J.J.J.J.T.: + 2 2 s /.}.{..X@X@X@X@X@X@X@X@X|.].]..X+X@X@X@X{.].].|.+X@X@XXX9.4.4.9.XX@X=X|.s 2 2 7 ,.4.4.+.&.J.J.J.",
"J.J.J.J.J.J.J.H.n v v - @ 2 2 q r.'.'.].@X@X@X@X@X@X@X@X.X{..X.X+X@X@X+X.X.X|..X+X@X@XXXw.0.9.w.oXXXOX[.s 2 2 7 O.+.+.:.n J.J.J.",
"J.J.J.J.J.J.J.n a g g d 5 2 2 7 2.9.9.e.XX#X@X@X@X@X@X@X@X+X@X+X.X.X.X.X+X@X@X+X.X.X.X.XXXXXXX.Xw.9.0.6.7 2 2 @ - &.&.n H.J.J.J.",
"J.J.J.J.J.J.J.v g l l k 3 2 2 7 >.4.4.9.XX#X@X@X@X@X@X@X@X@X@X@X|.].].}.@X@X@X+X.X].].|.@X@X#XXX9.4.4.>.7 2 2 @ : T.J.J.J.J.J.J.",
"J.J.J.J.J.J.J.v g l l k 3 2 2 7 ,.7.4.0.XX#X@X@X@X@X@X@X@X@X@X@X|.].].}.@X@X@X+X.X].].|.@X@X#XXX9.4.7.,.7 2 2 + : J.J.J.J.J.J.J.",
"J.J.J.J.J.J.J.n a g g d # + + 5 V ,.>.6.XX+X+X+X@X@X@X@XXXXXXXXX.X.X.X.X+X@X+X+X.X.X.X.XXXXXXX.X6.>.>.@.e 7 7 5 : J.J.J.J.J.J.J.",
"J.J.J.J.J.J.J.H.n n n n : : : - 5 7 7 d `..X{..X@X@X@XXXw.9.9.w.XX@X+X+X.X.X{..X+X+X@XXXw.9.9.6.e 7 7 e ' ,.,.O.&.J.J.J.J.J.J.J.",
"J.J.J.J.J.J.J.J.J.J.J.J.J.J.T.: + 2 1 q ^.}.]..X@X@X@XXX9.4.4.9.XX@X@X@X}.].]..X+X@X#XXX9.4.4.>.7 2 1 7 ,.4.4.+.&.J.J.J.J.J.J.J.",
"J.J.J.J.J.J.J.J.J.J.J.J.J.J.J.: + 2 1 q /.}.}..X@X@X#XXX9.4.4.9.XX@X@X@X.X].]..X@X#X#XOX9.4.4.>.7 2 2 7 <.7.4.+.&.J.J.J.J.J.J.J.",
"J.J.J.J.J.J.J.J.J.J.J.J.J.J.J.: p e 7 d r././.`.XXXXXX.Xe.9.9.e.XX@X@X+X'.'.'.'.|.|.|.[.6.>.,.V # + + 5 O.+.+.:.&.J.J.J.J.J.J.J.",
"J.J.J.J.J.J.J.J.J.J.J.J.J.J.J.=.;.r.r.t.d q q d 6.0.9.e.`.'.'.'.{.|..X'.0.8.8.6.d s s s 7 7 7 # - : : : n &.n n U.J.J.J.J.J.J.J.",
"J.J.J.J.J.J.J.J.J.J.J.J.J.J.J.=.t.^.^.r.q 1 1 7 ,.4.4.9.'.].].].].].{.'.8.4.4.>.7 1 2 2 2 2 2 + : J.J.J.J.J.J.J.J.J.J.J.J.J.J.J.",
"J.J.J.J.J.J.J.J.J.J.J.J.J.J.J.=.t.(.^.r.e 2 2 7 ,.4.4.9.'.}.}.}.}.}.{.'.9.4.4.,.7 1 2 2 2 2 2 @ : J.J.J.J.J.J.J.J.J.J.J.J.J.J.J.",
"J.J.J.J.J.J.J.J.J.J.J.J.J.J.J.=.;.t.t.;.p + + 5 V ,.>.<.r././././././.r.<.,.,.V e 7 7 7 @ + @ $ : J.J.J.J.J.J.J.J.J.J.J.J.J.J.J.",
"J.J.J.J.J.J.J.J.J.J.J.J.J.J.J.J.=.=.=.=.: : : - 5 7 7 7 e s s s s e s e 7 7 7 e ' ,.,.O.- : : : H.J.J.J.J.J.J.J.J.J.J.J.J.J.J.J.",
"J.J.J.J.J.J.J.J.J.J.J.J.J.J.J.J.J.J.J.J.J.J.J.: @ 2 2 2 2 2 2 2 2 2 2 2 2 2 2 7 ,.4.4.+.&.J.J.J.J.J.J.J.J.J.J.J.J.J.J.J.J.J.J.J.",
"J.J.J.J.J.J.J.J.J.J.J.J.J.J.J.J.J.J.J.J.J.J.J.: @ 2 2 2 2 2 2 2 2 2 2 2 2 2 2 7 ,.4.4.+.n J.J.J.J.J.J.J.J.J.J.J.J.J.J.J.J.J.J.J.",
"J.J.J.J.J.J.J.J.J.J.J.J.J.J.J.J.J.J.J.J.J.J.J.: * 6 6 6 6 6 6 6 6 6 6 6 6 6 6 s 2.6.6.#.&.J.J.J.J.J.J.J.J.J.J.J.J.J.J.J.J.J.J.J.",
"J.J.J.J.J.J.J.J.J.J.J.J.J.J.J.J.J.J.J.J.J.J.J.J.=.=.=.=.=.=.=.=.=.=.=.=.=.=.=.=.Y.Y.Y.Y.J.J.J.J.J.J.J.J.J.J.J.J.J.J.J.J.J.J.J.J.",
"J.J.J.J.J.J.J.J.J.J.J.J.J.J.J.J.J.J.J.J.J.J.J.J.J.J.J.J.J.J.J.J.J.J.J.J.J.J.J.J.J.J.J.J.J.J.J.J.J.J.J.J.J.J.J.J.J.J.J.J.J.J.J.J.",
"J.J.J.J.J.J.J.J.J.J.J.J.J.J.J.J.J.J.J.J.J.J.J.J.J.J.J.J.J.J.J.J.J.J.J.J.J.J.J.J.J.J.J.J.J.J.J.J.J.J.J.J.J.J.J.J.J.J.J.J.J.J.J.J.",
"J.J.J.J.J.J.J.J.J.J.J.J.J.J.J.J.J.J.J.J.J.J.J.J.J.J.J.J.J.J.J.J.J.J.J.J.J.J.J.J.J.J.J.J.J.J.J.J.J.J.J.J.J.J.J.J.J.J.J.J.J.J.J.J."
};
