/* XPM */
static char *w[] = {
/* columns rows colors chars-per-pixel */
"64 64 110 2 ",
"   c #4C4C4C",
".  c #4D4D4D",
"X  c #4E4E4E",
"o  c #4F4F4F",
"O  c #505050",
"+  c #515151",
"@  c #525252",
"#  c #535353",
"$  c #545454",
"%  c #555555",
"&  c #565656",
"*  c #575757",
"=  c #585858",
"-  c #595959",
";  c #5A5A5A",
":  c #5B5B5B",
">  c #5C5C5C",
",  c #5D5D5D",
"<  c #5E5E5E",
"1  c #5F5F5F",
"2  c #606060",
"3  c #616161",
"4  c #626262",
"5  c #636363",
"6  c #646464",
"7  c #656565",
"8  c #666666",
"9  c #676767",
"0  c #686868",
"q  c #696969",
"w  c #6A6A6A",
"e  c #6B6B6B",
"r  c #6C6C6C",
"t  c #6D6D6D",
"y  c #6E6E6E",
"u  c #6F6F6F",
"i  c #707070",
"p  c #717171",
"a  c #727272",
"s  c #737373",
"d  c #747474",
"f  c #757575",
"g  c #767676",
"h  c #777777",
"j  c #787878",
"k  c #797979",
"l  c #7A7A7A",
"z  c #7B7B7B",
"x  c #7C7C7C",
"c  c #7D7D7D",
"v  c #7E7E7E",
"b  c #7F7F7F",
"n  c #808080",
"m  c #818181",
"M  c #828282",
"N  c #838383",
"B  c #848484",
"V  c #858585",
"C  c #868686",
"Z  c #878787",
"A  c #888888",
"S  c #898989",
"D  c #8A8A8A",
"F  c #8B8B8B",
"G  c #8C8C8C",
"H  c #8D8D8D",
"J  c #8E8E8E",
"K  c #8F8F8F",
"L  c #909090",
"P  c #919191",
"I  c #929292",
"U  c #939393",
"Y  c #949494",
"T  c #959595",
"R  c #969696",
"E  c #979797",
"W  c #989898",
"Q  c #999999",
"!  c #9A9A9A",
"~  c #9B9B9B",
"^  c #9C9C9C",
"/  c #9D9D9D",
"(  c #9E9E9E",
")  c #9F9F9F",
"_  c #A0A0A0",
"`  c #A1A1A1",
"'  c #A2A2A2",
"]  c #A3A3A3",
"[  c #A4A4A4",
"{  c #A5A5A5",
"}  c #A6A6A6",
"|  c #A7A7A7",
" . c #A8A8A8",
".. c #A9A9A9",
"X. c #AAAAAA",
"o. c #ABABAB",
"O. c #ACACAC",
"+. c #ADADAD",
"@. c #AEAEAE",
"#. c #AFAFAF",
"$. c #B0B0B0",
"%. c #B1B1B1",
"&. c #B2B2B2",
"*. c #B3B3B3",
"=. c #B4B4B4",
"-. c #B7B7B7",
";. c #B8B8B8",
":. c #BCBCBC",
">. c #C0C0C0",
",. c #C1C1C1",
/* pixels */
"c c c c 0 6 6 6 6 6 6 0 _ $.$.$. . . ._ m m m c i i i i _  . . ._ _ _ _ m c c c 0 6 6 6 & & & & ; ; ; ; 0 0 0 i W _ _  .$.$.$.$.",
"c c c c 0 6 6 6 6 6 6 0 _ $.$. . . . ._ m c c c i i i i _  . . ._ _ _ _ m c c c 0 6 6 6 & & & & ; ; ; ; 0 0 0 i W _ _  .$.$.$.$.",
"c c c c 0 6 6 6 6 6 6 0 _ $.$. . . . ._ m c m c i i i i _  . . ._ _ _ _ m c c c 6 6 6 6 & & & & & ; ; ; 0 0 0 i W _ _  .$.$.$.$.",
"c c c c 0 6 6 6 0 0 0 i _ $.$. . ._ _ _ m c c c i i i c _ _ _ _ _ _ _ _ m m m c 0 0 0 6 & & & & ; ; ; ; i i i i W _ _ _  . . . .",
"S S m m 0 6 6 0 I _ _ _  . . . .I S S S i 0 0 i W _ _ _ S S S I  . . . .I S S S S S S m 6 6 6 6 6 6 6 0 I W W W S m m m m m m m ",
"S S S m 0 6 6 0 _  . . . . . . .S S S m 0 0 0 0 _  . ._ S m m S  .$.$. .I S S S S S I S 0 6 6 6 6 6 6 0 W _ _ _ m c c c c c c c ",
"S S S m 6 6 6 0 _  . . . . . . .S S S m 0 0 0 0 _  . ._ S m m S  .$.$. .I S S S S S S S 0 6 6 6 6 6 6 0 W _ _ _ m m m c m m m m ",
"m m m m 0 0 0 0 W _ _ _  . . ._ S m S m 0 6 6 0 _  . ._ S S S S _  . . .I S S S S S S S 0 6 6 6 6 6 6 0 I W W W m m m m m m m m ",
"0 0 6 0 I W W I m m m m m m m m m m c c ; & & ; W  . . .I I I I S m m m m m m m m S m m 6 ; & ; 6 6 6 6 0 0 0 0 S I I I m m m m ",
"6 6 6 0 W _ _ W m c c c c c c c c c c c ; & & ; W  . . .I I I I m c c c c c c m m m m m ; & & & 6 6 6 6 6 6 6 6 S I I I m m m m ",
"6 6 6 0 I _ _ W c c c c c c c c c c c c & & & ; W  . . .I I I I m c m m m m m m m m m m ; & & & 6 6 6 6 6 6 6 6 I W W I m m m m ",
"6 6 6 0 I W W W m c c c c c c c c c c c & & & ; W _ _ _ I I I S m m m m m m m m m m m c ; & & ; 6 0 0 0 6 6 6 6 S I I I m c c c ",
"6 6 6 6 0 0 0 i I I I I m c c c i i i i ; & & ; c m m m m m m m S S S S m c m c 6 ; ; ; ; ; & ; I W W I 0 6 6 6 0 0 0 0 ; ; ; ; ",
"6 6 6 6 6 6 6 6 I W W W m c c c i i i 0 ; & & ; c m c c m m m m S I I S m c m c ; & & & ; ; ; ; W _ _ W 0 6 6 6 6 6 6 6 & & & & ",
"6 6 6 6 6 6 6 6 I W W W m c c c i i i 0 ; & & ; c m m m m m m m S I S S m c m c ; & & & ; ; ; 6 W _ _ W 0 6 6 6 6 6 6 6 & & & & ",
"6 6 6 6 0 0 0 0 S I I I c c c c i 0 0 0 ; & & ; i c c c m m m m S S S m c c c c 6 ; ; ; 6 6 ; 6 I _ _ W 0 6 6 6 6 6 6 6 & & & & ",
"I I I I W W _ W 0 ; 6 6 ; ; ; ; ; ; ; ; & & & ; 0 0 0 0 c m m c ; ; ; ; ; ; ; 6 I W W W I I I I m m m m c c c c 6 6 6 6 0 0 0 0 ",
"W W W W _  . ._ 6 & & & & & & & & & & & & & & ; 6 0 0 0 c m m c & & . & & & & ; W  . . .W W W W m c c c m m m c 0 6 6 6 0 i i i ",
"W W W W _  . ._ 6 & & & & & & & & & & & & & & ; 6 0 0 0 c m m c & & & & & & & ; W  . . .W W W W m c c c c c m c 6 6 6 6 0 i i i ",
"W W W W _ _ _ W 6 ; ; ; ; 6 6 6 ; ; 6 6 6 6 6 6 6 6 6 0 c c c i ; & & & ; 6 6 0 W  . ._ W I W I m m m m c c c c 0 6 6 0 0 0 0 0 ",
" . . . .S m m m i 0 0 i W _ _ _ W W W W _ _ _ W 0 6 6 6 ; ; ; ; 6 6 6 0 _ $.$.$._ _ _ W S m m m S S S S m m c m m m m m 0 0 0 0 ",
"$.$.$. .m c c c i i i c _ $.$. ._ _ _ _  . .$. .0 6 6 6 ; & & & 6 0 0 i $.>.>.:._ W W W m m m m S I I S m c c m m m S m 0 0 0 0 ",
"$.$.$. .m c c c i i i c _ $.$. ._ _ _ _  . .$. .0 6 6 6 ; & & ; 6 0 0 i $.>.>.:._ W W W m m m m S I I S m c c m m S S m 0 0 0 0 ",
" . . ._ m c c c i i i i _  . . ._ W W _  . . ._ 0 6 6 6 ; & & ; 6 6 6 i  .:.$.$._ W W W m m m m S S S S m m m m m m m m 0 6 6 6 ",
"m m c m m m m m 6 6 6 6 I W _ W S m m m m m m m c c c i 6 6 6 6 6 6 6 6 0 i i i m m m m S S S S S S S S S S S S 0 6 6 6 ; ; ; ; ",
"c c i c m m m m 6 ; ; 6 I W W W m m m m c c c c c c c c 6 6 6 6 6 6 6 6 6 6 6 6 c m m m S S S S S S S S I I I S 6 ; ; ; ; ; ; ; ",
"c c c c m S m m 6 ; ; 6 I W W W m m m m c c c c c c c c 6 6 6 6 6 6 6 6 6 6 6 6 c m m m S S S S S S S S I I I S 6 ; ; ; ; ; ; ; ",
"c c c c m m m m 6 6 6 6 S I I I m c c c i i i i c c c c 0 6 6 6 0 0 0 0 6 6 6 0 c c c c m S S S S m m S S S S m 6 ; ; ; ; ; ; ; ",
"c c c c c c c c i i i i 6 ; 6 ; & & & & & & & & ; ; ; 6 c m m m W W W W m c c c 6 6 6 6 6 0 0 0 i i i i 6 ; ; ; ; ; ; ; 6 6 6 6 ",
"c c c c c c c i i i i i ; & & & . . . . . . . . & & & ; m S S S _  . ._ S m m c 6 ; ; ; 6 6 6 6 i i i 0 ; & & & ; ; ; ; 6 6 0 0 ",
"c c c c i i i i i i i i ; & & & . . . . . . . . & & & ; m S S S _  . ._ m m m c 6 ; ; ; 6 6 6 6 i i i 0 & & & & ; ; ; ; 6 0 0 0 ",
"i i i i c c c c c c c c 6 6 6 ; & & & & . . . & ; 6 6 6 m S S S _  . ._ S m m m 0 6 6 6 6 6 6 6 i c i i ; ; ; ; ; ; ; ; 6 6 6 6 ",
"6 6 6 0 W _ _ _ _ _ _ _ _ _ _ W m c c c ; ; ; 6 I _ _ _ I I I W _  . . ._ _ _ _ S S S S i 0 0 i I I I I S m m m 0 6 6 6 6 6 6 6 ",
"6 6 6 0 _  . . . . . . . . . ._ m m m c 6 ; ; 6 _  . . .W I I W  . . . . . . . .I I I S i 0 0 i I W W W I S S S 0 6 6 6 6 6 6 6 ",
"6 6 6 0 W  . . . . . . . . . ._ m m m c 6 ; ; 6 _  . . .W I I W _  . . . . . ._ I I I S i 0 0 i I W W W I S S S 0 6 6 6 6 6 6 6 ",
"6 6 6 0 W _ _ _ _ _ _ _ _ _ _ _ S m m c 6 ; ; 6 W _ _ _ I I I I _  . . . . . ._ I S S S i 0 0 i S I I I S S S m i 0 0 0 0 0 0 0 ",
"6 6 6 6 m m m m S S S S S m m S S S S m ; & & & 0 i i i i c i c _  . . . . . ._ c i i i c c c c ; ; ; ; 0 0 0 0 I _ W W _ _ _ _ ",
"6 6 6 6 c c c c m m m m m m m m S S S m & . . & 6 0 6 0 i i i c _  . . . . . ._ i 0 0 0 c m m c & . . . ; 6 6 0 W  . . . . . . .",
"6 6 6 6 c m c m m S S m m m m m S S S m & . & & 6 0 6 0 i i i c _  . . . . . ._ i 0 0 0 c m m c & . . & ; 6 6 0 W  . . . . . . .",
"6 ; ; 6 i c c c m S S m m m m m m m m c & & & & 6 6 6 0 i i i i W _ _ _ _ _ _ W i 0 0 0 i c c i & & & & 6 0 0 i _  . . ._ _ _ _ ",
"& & & & ; ; ; 6 m S S S m m m c ; ; ; ; ; ; 6 6 6 6 6 6 0 0 0 0 6 6 6 0 c m m m c c c c ; & & & ; ; ; 6 W _ _ _  . . ._ S m m m ",
"& & & & ; ; ; 6 m S S S m m m c & & . & ; 6 6 6 6 6 6 6 0 0 0 0 ; ; ; ; c c c c m m m c & & . & ; 6 6 0 _  . . . . . ._ S m m m ",
"& & & & ; ; ; 6 m S S S m c m c & & . & ; 6 6 6 6 6 6 6 0 0 0 0 ; ; ; ; c c c c m m m c ; . & & ; 6 6 0 _  . . . . . ._ S m m m ",
"& & & & ; ; ; 6 m m m m c c c i & & & & 6 6 0 0 0 0 0 0 0 0 0 0 ; ; ; ; i c c c c c c c ; & & & 6 0 0 i W _ _ _  . . ._ m m m m ",
"& & & & ; 6 6 ; ; ; ; ; 6 6 6 6 ; ; ; 6 I W W W W _ _ W m c c c i i i 0 ; ; ; ; 6 6 6 6 6 ; ; 6 W _ _ _ S S S S I I I I m c m m ",
"& & & & 6 6 6 ; & & & & ; ; ; ; 6 6 6 0 W _ _ _  . .$. .S m m m i i i i & & & & ; 6 6 6 6 6 6 0 _ $.$. .S m m m I I I I m c m m ",
"& & & & ; 6 6 6 & & & & ; ; ; ; 6 6 6 0 W _ _ _  .$. . .S m m m i i i i & & & & ; 6 6 6 6 6 6 0 _ $.$. .S m m m I I I I m m c c ",
"& & & & 6 0 0 6 ; ; ; ; ; 6 6 6 6 6 6 0 I _ _ _  . . . .S m m m c c c i ; ; ; ; 6 6 6 6 6 6 6 0 _ $.$. .S m m m S I I S c c c c ",
"; ; 6 6 S I I I I I I I I I I S 6 ; ; ; c m m m _ _ _ _ I S S I _ _ _ _ W W W W 0 6 6 6 6 6 6 0 W  . ._ S m m m m m m m 6 ; ; ; ",
"6 6 6 0 I W W W W W W W W W W I 6 ; ; ; c c c m W _ _ _ I I I I  . . . . . . ._ 0 6 6 6 6 6 6 0 W  . ._ S m m m m m m c 6 ; ; ; ",
"6 6 6 0 I W W W W W W W W W W I 6 ; ; ; c c c m W _ _ _ I I I I  . . . . . . ._ 0 6 6 6 6 6 6 0 W  . ._ S m m m m m m c 6 ; ; ; ",
"0 0 0 0 W _ W W W W W W I I I I 6 ; ; ; i c c c I W W I S S S S _ _ _ _ _ _ _ W 0 6 6 6 6 6 6 0 W _ _ _ S m m m m m m c 6 ; ; ; ",
"W W W W _ _ _ _ I S I S S S S m 0 6 6 6 6 6 6 6 ; ; ; ; 0 0 0 0 c c c c S S S m c c c i 6 6 6 6 c m m m m S S S m m m c ; & & & ",
"_ _ _ _ _  . ._ I S S S S S S m 0 0 0 6 6 6 6 ; & & . & 6 6 6 0 i i i i m m m m c c c c 6 6 6 6 i c c c m S S S m c c c ; & & & ",
"_ _ _ _ _  . ._ I S S S S S S m 0 0 0 6 6 6 6 ; & & & & 6 6 6 0 i i i i m m m m c c c c 6 6 6 6 i c c c m S S S m c m c ; & & & ",
"W W W W _ _ _ _ I I I I S m m m 0 0 0 0 6 6 6 6 ; & & & 6 6 6 6 i i i i m m m m c c c c 6 6 6 6 i c c c m m m m c c c c ; & & & ",
"i i i i S I I I W _ _ W m m m m i i i i c c c c c i i i 6 ; ; 6 6 6 6 6 6 6 6 6 c c c c 0 6 6 6 0 0 0 0 6 ; ; ; ; ; ; ; 6 6 6 6 ",
"6 6 6 0 m S S S _ _ _ _ m m m c i i i i c m c c c c c c 6 ; ; ; 6 6 ; ; ; ; ; 6 c c c c 6 6 6 6 0 0 0 0 ; & & & & & & & 6 6 6 6 ",
"6 6 6 0 m S S S _ _ _ _ m m m c c i i i c c c c c c c c 6 ; ; ; ; ; ; ; ; ; ; 6 c m c c 6 6 6 6 0 0 0 0 ; & & & & & & ; 6 6 6 6 ",
"0 0 0 0 m m m S W W W W m m m m c i i i c c c c c c c c 0 6 6 6 6 6 6 6 6 6 6 6 i c c i 6 6 6 6 i i i i 6 ; 6 6 ; ; ; ; 6 0 0 0 ",
"m m m m 6 ; ; 6 c c c c m m m m m c c c 6 ; ; ; 0 0 0 i I W W I c c c c c c c i ; & & ; 6 0 0 0 I W W W W W W W 0 ; 6 6 c c c c ",
"m m S m ; & & ; i c i c m m S m m m c c ; & & & 6 0 0 0 W _ _ _ m c m m m m c c & . . & 6 0 0 0 W _ _ _  . . ._ 0 6 6 6 c m m m ",
"m m m m ; & & ; i c c c m m m m m m m c ; & & & 6 0 6 0 W _ _ _ m m m c c c c c & & & & 6 0 0 0 W _ _ _  . . ._ 0 6 6 6 c m m m ",
"m m S m ; & & ; i c c c m m m m m m m c ; & & & 6 0 6 0 W _ _ _ m m c c c c c c & & & & 6 0 0 0 W _ _ _  . . ._ 0 6 6 6 c m m m "
};
